<svg width="94" height="29" viewBox="0 0 94 29" fill="none" xmlns="http://www.w3.org/2000/svg">
<path d="M9.07992 15.76L6.15992 19.6V28H0.919922V0.0799866H6.15992V12.64H6.39992L9.63992 7.99999L15.5199 0.0799866H21.4399L12.6799 11.84L25.1443 28H17.4999L9.07992 15.76Z" fill="#000816"/>
<path d="M39.9999 26L37.9843 20.92H29.7043L27.7843 28H22.5043L30.3443 0.0799866H37.6243L45.5043 28L39.9999 26ZM34.0243 5.23999H33.7043L30.6243 16.64H37.1043L34.0243 5.23999Z" fill="#000816"/>
<path d="M53.6887 0.0799866V17.48C53.6887 18.52 53.7153 19.4533 53.7687 20.28C53.8487 21.1067 54.022 21.8133 54.2887 22.4C54.582 22.96 55.0087 23.4 55.5687 23.72C56.1553 24.04 56.9553 24.2 57.9687 24.2C58.982 24.2 59.7687 24.04 60.3287 23.72C60.9153 23.4 61.342 22.96 61.6087 22.4C61.902 21.8133 62.0753 21.1067 62.1287 20.28C62.2087 19.4533 62.2487 18.52 62.2487 17.48V13.5L67.4887 8.28774V16.68C67.4887 18.6533 67.3687 20.3733 67.1287 21.84C66.8887 23.3067 66.422 24.5333 65.7287 25.52C65.0353 26.5067 64.062 27.2533 62.8087 27.76C61.582 28.24 59.9687 28.48 57.9687 28.48C55.9687 28.48 54.342 28.24 53.0887 27.76C51.862 27.2533 50.902 26.5067 50.2087 25.52C49.5153 24.5333 49.0487 23.3067 48.8087 21.84C48.5687 20.3733 48.4487 18.6533 48.4487 16.68V0.0799866H53.6887Z" fill="#215B9F"/>
<path d="M87.913 28L85.953 20.92H77.673L75.753 28H70.473L78.313 0.0799866H85.593L93.473 28H87.913ZM81.993 5.23999H81.673L78.593 16.64H85.073L81.993 5.23999Z" fill="#000816"/>
</svg>
