<svg width="32" height="32" viewBox="0 0 32 32" fill="none" xmlns="http://www.w3.org/2000/svg">
<g clip-path="url(#clip0_115_103)">
<path d="M4.00001 12C3.99995 10.0184 4.4906 8.06769 5.42817 6.32194C6.36573 4.5762 7.72102 3.08981 9.37302 1.99549C11.025 0.901163 12.9223 0.232973 14.8955 0.0505786C16.8686 -0.131815 18.8563 0.177264 20.6809 0.950219C22.5055 1.72317 24.1103 2.93595 25.3519 4.48024C26.5936 6.02454 27.4336 7.8523 27.7967 9.80031C28.1599 11.7483 28.035 13.7559 27.4333 15.6439C26.8315 17.5319 25.7715 19.2415 24.348 20.62C23.942 21.012 23.63 21.42 23.442 21.858L21.918 25.396C21.8407 25.5753 21.7125 25.7281 21.5494 25.8354C21.3863 25.9427 21.1953 26 21 26H11C10.8044 26.0004 10.613 25.9433 10.4494 25.836C10.2859 25.7286 10.1575 25.5756 10.08 25.396L8.55801 21.856C8.34009 21.3885 8.03223 20.9685 7.65201 20.62C6.49525 19.5023 5.57567 18.163 4.94819 16.6819C4.32072 15.2009 3.99824 13.6085 4.00001 12ZM10 29C10 28.7348 10.1054 28.4804 10.2929 28.2929C10.4804 28.1054 10.7348 28 11 28H21C21.2652 28 21.5196 28.1054 21.7071 28.2929C21.8947 28.4804 22 28.7348 22 29C22 29.2652 21.8947 29.5196 21.7071 29.7071C21.5196 29.8947 21.2652 30 21 30L20.552 30.894C20.386 31.2262 20.1309 31.5056 19.8151 31.7009C19.4993 31.8962 19.1353 31.9998 18.764 32H13.236C12.8647 31.9998 12.5007 31.8962 12.185 31.7009C11.8692 31.5056 11.614 31.2262 11.448 30.894L11 30C10.7348 30 10.4804 29.8947 10.2929 29.7071C10.1054 29.5196 10 29.2652 10 29Z" fill="black"/>
</g>
<defs>
<clipPath id="clip0_115_103">
<rect width="32" height="32" fill="white"/>
</clipPath>
</defs>
</svg>
