<svg width="120" height="106" viewBox="0 0 120 106" fill="none" xmlns="http://www.w3.org/2000/svg">
<path d="M106.576 30.1361C103.605 28.5558 100.031 28.5409 97.0466 29.5736L97.052 28.5284C96.4724 25.3904 95.9304 14.9362 49.4291 21.0127C2.92768 27.0892 5.85266 37.5534 6.42958 41.214C8.73996 55.3339 20.5744 71.0613 37.2233 77.4022C37.2179 78.4474 37.2152 78.97 37.8056 80.0176C38.9675 85.7711 49.082 88.4264 61.0052 86.9085C72.9284 85.3906 81.2959 80.1997 80.134 74.4462C80.1394 73.401 79.549 72.3534 79.5517 71.8308C83.7382 68.7127 87.3342 64.547 89.7388 60.3763C90.9276 60.9038 92.1137 61.954 93.3026 62.4816C95.0845 63.5342 97.4675 63.5442 99.2548 63.5517C104.024 63.049 108.811 58.8883 111.822 52.6297C115.451 42.193 113.709 33.3015 106.576 30.1361ZM105.881 49.4693C103.468 55.2078 98.6859 58.3233 95.1194 56.7406C93.9306 56.213 93.3375 55.688 92.7445 55.1629C95.7555 48.9043 97.5751 42.6407 97.6074 36.3697C98.8016 35.8521 99.9958 35.3345 100.592 35.337C101.783 35.342 102.975 35.347 103.568 35.872C107.73 37.4573 108.296 43.2082 105.881 49.4693Z" fill="#005BC5"/>
<path d="M50.5941 26.7656C30.3258 29.2928 14.81 34.4518 15.3896 37.5887C15.9665 41.2479 32.6442 41.8401 52.3167 39.3104C71.9892 36.7807 88.1008 31.6241 87.5239 27.9649C86.947 24.3057 70.2666 24.2359 50.5941 26.7656Z" fill="#3E1E00"/>
</svg>
