<svg width="65" height="65" viewBox="0 0 65 65" fill="none" xmlns="http://www.w3.org/2000/svg">
<path d="M65 32.5C65 27.318 63.7609 22.211 61.3859 17.6052C59.011 12.9995 55.5691 9.02835 51.3475 6.02317C47.1258 3.01798 42.2467 1.06587 37.1173 0.329657C31.9878 -0.406552 26.7566 0.0944906 21.8601 1.79099C16.9637 3.48749 12.5438 6.33026 8.96938 10.0822C5.39491 13.8341 2.76942 18.3863 1.31194 23.3592C-0.145543 28.332 -0.39277 33.5813 0.590882 38.6691C1.57453 43.757 3.76055 48.5358 6.96657 52.6071L9.64699 50.4963C6.77752 46.8524 4.82099 42.5752 3.9406 38.0215C3.06021 33.4678 3.28148 28.7696 4.58596 24.3187C5.89045 19.8679 8.24031 15.7935 11.4395 12.4355C14.6388 9.07747 18.5946 6.53313 22.9771 5.01472C27.3595 3.49632 32.0415 3.04787 36.6325 3.7068C41.2236 4.36572 45.5904 6.11291 49.3689 8.80262C53.1474 11.4923 56.228 15.0466 58.3536 19.1689C60.4792 23.2911 61.5883 27.862 61.5883 32.5H65Z" fill="#6A6A6A"/>
<path d="M21.3938 33.4651C21.1209 33.4651 20.8424 33.5469 20.5586 33.7107C20.2856 33.8636 20.0399 34.1256 19.8215 34.4969C19.9307 35.3158 20.1382 35.8835 20.4439 36.2002C20.7496 36.5059 21.0826 36.6588 21.443 36.6588C21.8033 36.6588 22.109 36.5277 22.3601 36.2657C22.6222 35.9927 22.7532 35.5614 22.7532 34.9718C22.7532 34.4259 22.6222 34.0383 22.3601 33.809C22.109 33.5797 21.7869 33.4651 21.3938 33.4651ZM21.4921 38.4603C20.8261 38.4603 20.1928 38.2856 19.5923 37.9362C18.9917 37.5759 18.5004 37.0191 18.1182 36.2657C17.747 35.5014 17.5614 34.5132 17.5614 33.3013C17.5614 32.002 17.7579 30.9374 18.151 30.1076C18.555 29.2778 19.0736 28.6663 19.7069 28.2732C20.3511 27.8693 21.039 27.6673 21.7705 27.6673C22.4584 27.6673 23.0535 27.7928 23.5557 28.044C24.058 28.2842 24.4729 28.5735 24.8004 28.912L23.5393 30.3532C23.3646 30.1567 23.1244 29.9875 22.8187 29.8455C22.5239 29.6927 22.2236 29.6162 21.9179 29.6162C21.5358 29.6162 21.1864 29.72 20.8697 29.9274C20.5531 30.124 20.2965 30.4624 20.1 30.9428C19.9144 31.4124 19.8052 32.0511 19.7724 32.8591C20.0454 32.5097 20.3784 32.2422 20.7715 32.0565C21.1755 31.86 21.5358 31.7617 21.8524 31.7617C22.7477 31.7617 23.4847 32.0238 24.0634 32.5479C24.653 33.0611 24.9478 33.869 24.9478 34.9718C24.9478 35.6925 24.7895 36.3148 24.4729 36.8389C24.1562 37.3521 23.7359 37.7506 23.2118 38.0345C22.6986 38.3184 22.1254 38.4603 21.4921 38.4603ZM29.8665 38.4603C28.7528 38.4603 27.852 37.9963 27.1641 37.0682C26.4872 36.1401 26.1487 34.7917 26.1487 33.0228C26.1487 31.254 26.4872 29.922 27.1641 29.0266C27.852 28.1204 28.7528 27.6673 29.8665 27.6673C30.9802 27.6673 31.8755 28.1204 32.5525 29.0266C33.2403 29.922 33.5843 31.254 33.5843 33.0228C33.5843 34.7917 33.2403 36.1401 32.5525 37.0682C31.8755 37.9963 30.9802 38.4603 29.8665 38.4603ZM29.8665 36.5932C30.1394 36.5932 30.3851 36.495 30.6035 36.2984C30.8219 36.091 30.9911 35.7307 31.1112 35.2175C31.2422 34.7043 31.3077 33.9728 31.3077 33.0228C31.3077 32.0729 31.2422 31.3468 31.1112 30.8446C30.9911 30.3423 30.8219 29.9984 30.6035 29.8128C30.3851 29.6272 30.1394 29.5343 29.8665 29.5343C29.6044 29.5343 29.3642 29.6272 29.1458 29.8128C28.9275 29.9984 28.7528 30.3423 28.6218 30.8446C28.4907 31.3468 28.4252 32.0729 28.4252 33.0228C28.4252 33.9728 28.4907 34.7043 28.6218 35.2175C28.7528 35.7307 28.9275 36.091 29.1458 36.2984C29.3642 36.495 29.6044 36.5932 29.8665 36.5932ZM37.2746 34.1693C36.5103 34.1693 35.877 33.869 35.3747 33.2685C34.8725 32.668 34.6213 31.8327 34.6213 30.7627C34.6213 29.6927 34.8725 28.8628 35.3747 28.2732C35.877 27.6836 36.5103 27.3888 37.2746 27.3888C38.0498 27.3888 38.6885 27.6836 39.1908 28.2732C39.693 28.8628 39.9442 29.6927 39.9442 30.7627C39.9442 31.8327 39.693 32.668 39.1908 33.2685C38.6885 33.869 38.0498 34.1693 37.2746 34.1693ZM37.2746 32.8263C37.5475 32.8263 37.7768 32.6735 37.9624 32.3677C38.159 32.062 38.2572 31.527 38.2572 30.7627C38.2572 29.9984 38.159 29.4688 37.9624 29.174C37.7768 28.8792 37.5475 28.7318 37.2746 28.7318C37.0016 28.7318 36.7668 28.8792 36.5703 29.174C36.3847 29.4688 36.2919 29.9984 36.2919 30.7627C36.2919 31.527 36.3847 32.062 36.5703 32.3677C36.7668 32.6735 37.0016 32.8263 37.2746 32.8263ZM37.6349 38.4603L43.3999 27.3888H44.792L39.027 38.4603H37.6349ZM45.1524 38.4603C44.388 38.4603 43.7548 38.1601 43.2525 37.5595C42.7503 36.959 42.4991 36.1237 42.4991 35.0537C42.4991 33.9837 42.7503 33.1539 43.2525 32.5643C43.7548 31.9747 44.388 31.6799 45.1524 31.6799C45.9276 31.6799 46.5663 31.9747 47.0686 32.5643C47.5708 33.1539 47.822 33.9837 47.822 35.0537C47.822 36.1237 47.5708 36.959 47.0686 37.5595C46.5663 38.1601 45.9276 38.4603 45.1524 38.4603ZM45.1524 37.1173C45.4253 37.1173 45.6546 36.9645 45.8402 36.6588C46.0368 36.353 46.135 35.818 46.135 35.0537C46.135 34.2894 46.0368 33.7599 45.8402 33.4651C45.6546 33.1703 45.4253 33.0228 45.1524 33.0228C44.8794 33.0228 44.6446 33.1703 44.4481 33.4651C44.2625 33.7599 44.1697 34.2894 44.1697 35.0537C44.1697 35.818 44.2625 36.353 44.4481 36.6588C44.6446 36.9645 44.8794 37.1173 45.1524 37.1173Z" fill="#6A6A6A"/>
</svg>
