<svg width="62" height="48" viewBox="0 0 62 48" fill="none" xmlns="http://www.w3.org/2000/svg">
<path d="M52.4875 3.92032C48.4672 2.0753 44.225 0.758485 39.8667 0.00269164C39.8272 -0.00395841 39.7866 0.00178501 39.7505 0.0191324C39.7144 0.0364798 39.6846 0.0645791 39.6652 0.0995665C39.1188 1.06832 38.5143 2.33544 38.0919 3.32744C33.3939 2.61447 28.6152 2.61447 23.9172 3.32744C23.446 2.22237 22.913 1.1447 22.3207 0.0995665C22.3008 0.0649623 22.2709 0.0371867 22.2349 0.0198951C22.199 0.00260342 22.1586 -0.00339396 22.1192 0.00269164C17.7598 0.754442 13.5167 2.07194 9.49828 3.92032C9.46389 3.93344 9.43513 3.95809 9.4169 3.99007C1.38015 15.9987 -0.824721 27.7128 0.256404 39.2797C0.260279 39.3339 0.295154 39.3882 0.337779 39.4231C5.01771 42.8897 10.2523 45.5365 15.8184 47.2506C15.8577 47.263 15.8999 47.2625 15.939 47.2493C15.978 47.236 16.0118 47.2107 16.0354 47.1769C17.2289 45.5494 18.2907 43.8328 19.2052 42.0271C19.2242 41.9899 19.2307 41.9475 19.2238 41.9063C19.2168 41.8651 19.1967 41.8273 19.1664 41.7984C19.1464 41.7795 19.1226 41.765 19.0967 41.7558C17.4272 41.1142 15.8102 40.3433 14.2607 39.4502C14.2174 39.4257 14.1852 39.3854 14.1708 39.3378C14.1563 39.2902 14.1608 39.2389 14.1832 39.1944C14.1963 39.1656 14.2163 39.1403 14.2413 39.1208C14.5668 38.8767 14.8923 38.6209 15.2023 38.3652C15.2297 38.3432 15.2625 38.329 15.2973 38.3242C15.3321 38.3195 15.3676 38.3242 15.3999 38.3381C25.5485 42.9726 36.5342 42.9726 46.5588 38.3381C46.5923 38.3236 46.629 38.3184 46.6652 38.3232C46.7014 38.328 46.7356 38.3425 46.7642 38.3652C47.0742 38.6209 47.3997 38.8767 47.7252 39.1208C47.7515 39.1401 47.7727 39.1656 47.7868 39.1951C47.8009 39.2245 47.8075 39.257 47.806 39.2897C47.8044 39.3223 47.7948 39.354 47.778 39.3821C47.7612 39.4101 47.7377 39.4335 47.7097 39.4502C46.1636 40.3515 44.5446 41.1214 42.8698 41.7519C42.8431 41.7616 42.8188 41.777 42.7987 41.7971C42.7786 41.8172 42.7632 41.8415 42.7535 41.8682C42.7446 41.8941 42.741 41.9215 42.743 41.9488C42.745 41.9761 42.7525 42.0028 42.7652 42.0271C43.6952 43.8289 44.7608 45.5494 45.931 47.1769C45.9547 47.2107 45.9885 47.236 46.0275 47.2493C46.0665 47.2625 46.1087 47.263 46.148 47.2506C51.7234 45.5418 56.9665 42.8947 61.6519 39.4231C61.6754 39.4068 61.6949 39.3855 61.709 39.3607C61.7231 39.3358 61.7314 39.3082 61.7333 39.2797C63.0275 25.9071 59.5672 14.2898 52.565 3.99394C52.558 3.97694 52.5474 3.9616 52.5341 3.94892C52.5207 3.93623 52.5049 3.92649 52.4875 3.92032ZM20.7203 32.2349C17.6629 32.2349 15.148 29.4294 15.148 25.9884C15.148 22.5436 17.6164 19.7381 20.7203 19.7381C23.8474 19.7381 26.339 22.5668 26.2925 25.9884C26.2925 29.4294 23.8242 32.2349 20.7203 32.2349ZM41.3198 32.2349C38.2663 32.2349 35.7475 29.4294 35.7475 25.9884C35.7475 22.5436 38.2159 19.7381 41.3198 19.7381C44.4469 19.7381 46.9424 22.5668 46.892 25.9884C46.892 29.4294 44.4469 32.2349 41.3198 32.2349Z" fill="black"/>
</svg>
