<svg width="327" height="132" viewBox="0 0 327 132" fill="none" xmlns="http://www.w3.org/2000/svg">
<path d="M6.876 120V22.812H35.892C41.612 22.812 46.552 23.384 50.712 24.528C54.976 25.672 58.46 27.336 61.164 29.52C63.972 31.704 66.052 34.304 67.404 37.32C68.756 40.232 69.432 43.456 69.432 46.992C69.432 49.8 68.86 52.66 67.716 55.572C66.676 58.38 65.116 60.928 63.036 63.216C61.06 65.4 58.512 67.064 55.392 68.208C58.096 69.248 60.54 70.6 62.724 72.264C64.908 73.928 66.78 75.852 68.34 78.036C69.9 80.116 71.096 82.352 71.928 84.744C72.864 87.136 73.332 89.632 73.332 92.232C73.332 96.392 72.552 100.188 70.992 103.62C69.432 107.052 67.092 110.016 63.972 112.512C60.852 114.904 56.952 116.776 52.272 118.128C47.592 119.376 42.08 120 35.736 120H6.876ZM22.164 107.052H37.452C41.508 107.052 44.992 106.532 47.904 105.492C50.816 104.348 53.052 102.632 54.612 100.344C56.276 98.056 57.108 95.144 57.108 91.608C57.108 88.28 56.38 85.368 54.924 82.872C53.572 80.272 51.284 78.244 48.06 76.788C44.836 75.332 40.468 74.604 34.956 74.604H22.164V107.052ZM22.164 62.124H34.332C39.324 62.124 43.224 61.552 46.032 60.408C48.944 59.264 50.972 57.652 52.116 55.572C53.364 53.492 53.988 51.152 53.988 48.552C53.988 46.576 53.624 44.808 52.896 43.248C52.272 41.688 51.232 40.336 49.776 39.192C48.32 37.944 46.448 37.008 44.16 36.384C41.872 35.76 39.168 35.448 36.048 35.448H22.164V62.124ZM90.648 120V22.812H120.912C128.712 22.812 135.056 24.008 139.944 26.4C144.936 28.688 148.576 31.964 150.864 36.228C153.256 40.388 154.452 45.328 154.452 51.048C154.452 54.688 153.672 58.328 152.112 61.968C150.656 65.504 148.472 68.676 145.56 71.484C142.752 74.188 139.424 76.164 135.576 77.412L157.104 120H140.724L120.288 78.816H106.404V120H90.648ZM106.404 65.868H122.004C127.62 65.868 131.78 64.568 134.484 61.968C137.292 59.264 138.696 55.728 138.696 51.36C138.696 48.656 138.072 46.16 136.824 43.872C135.68 41.584 133.86 39.764 131.364 38.412C128.972 37.06 125.852 36.384 122.004 36.384H106.404V65.868ZM222.468 95.352H185.496L187.836 84.276H219.816L222.468 95.352ZM204.84 51.828L183.156 120H168.024L201.876 21.72H207.96L241.812 120H226.212L204.84 51.828ZM255.072 109.86L301.56 36.072H256.944V22.812H319.812V32.952L274.104 106.896H315.132C316.9 106.896 318.148 106.844 318.876 106.74C319.604 106.532 320.28 106.116 320.904 105.492H322.152V106.896V120H255.072V109.86Z" fill="#A5FAFF" fill-opacity="0.3"/>
<g filter="url(#filter0_d_8_4)">
<path d="M51.408 69.624L45.776 76.536V107H33.104V27.256H45.648H46.928V28.408C46.416 28.92 46.0747 29.4747 45.904 30.072C45.8187 30.6693 45.776 31.6933 45.776 33.144V61.304L74.704 26.616C75.216 26.7013 75.856 26.7867 76.624 26.872C77.392 26.9573 78.16 27.0427 78.928 27.128C79.696 27.128 80.4213 27.1707 81.104 27.256C81.872 27.256 82.5547 27.256 83.152 27.256H88.656L60.496 61.048L90.32 107L75.472 107.512L51.408 69.624ZM142.544 86.776H112.208L114.128 77.688H140.368L142.544 86.776ZM128.08 51.064L110.288 107H97.872L125.648 26.36H130.64L158.416 107H145.616L128.08 51.064ZM195.92 108.536C187.301 108.536 180.688 105.976 176.08 100.856C171.472 95.6507 169.168 88.44 169.168 79.224V27.256H181.584H182.864V28.408C182.352 28.92 182.011 29.4747 181.84 30.072C181.755 30.6693 181.712 31.6933 181.712 33.144V79.352C181.712 85.1547 182.736 89.7627 184.784 93.176C186.917 96.5893 190.672 98.296 196.048 98.296C201.509 98.296 205.307 96.5893 207.44 93.176C209.573 89.7627 210.64 85.0267 210.64 78.968V27.256H223.056V78.84C223.056 85.6667 221.904 91.256 219.6 95.608C217.296 99.96 214.096 103.203 210 105.336C205.989 107.469 201.296 108.536 195.92 108.536ZM278.224 86.776H247.888L249.808 77.688H276.048L278.224 86.776ZM263.76 51.064L245.968 107H233.552L261.328 26.36H266.32L294.096 107H281.296L263.76 51.064Z" fill="#F4FEFF"/>
</g>
<defs>
<filter id="filter0_d_8_4" x="23.104" y="20.36" width="280.992" height="102.176" filterUnits="userSpaceOnUse" color-interpolation-filters="sRGB">
<feFlood flood-opacity="0" result="BackgroundImageFix"/>
<feColorMatrix in="SourceAlpha" type="matrix" values="0 0 0 0 0 0 0 0 0 0 0 0 0 0 0 0 0 0 127 0" result="hardAlpha"/>
<feOffset dy="4"/>
<feGaussianBlur stdDeviation="5"/>
<feComposite in2="hardAlpha" operator="out"/>
<feColorMatrix type="matrix" values="0 0 0 0 0 0 0 0 0 0 0 0 0 0 0 0 0 0 0.25 0"/>
<feBlend mode="normal" in2="BackgroundImageFix" result="effect1_dropShadow_8_4"/>
<feBlend mode="normal" in="SourceGraphic" in2="effect1_dropShadow_8_4" result="shape"/>
</filter>
</defs>
</svg>
