<svg width="65" height="65" viewBox="0 0 65 65" fill="none" xmlns="http://www.w3.org/2000/svg">
<path d="M65 32.5C65 25.6257 62.8203 18.9284 58.7741 13.371C54.728 7.81355 49.0239 3.6822 42.4819 1.57086C35.9398 -0.540485 28.8968 -0.523069 22.3653 1.6206C15.8337 3.76427 10.1502 7.92378 6.13157 13.5012C2.11299 19.0785 -0.0335992 25.7865 0.000397439 32.6607C0.0343941 39.535 2.24723 46.2214 6.32078 51.7587C10.3943 57.2961 16.1188 61.3992 22.6712 63.4781C29.2236 65.5571 36.2665 65.5048 42.7873 63.3289L41.7074 60.0926C35.8711 62.0401 29.5675 62.0869 23.703 60.2261C17.8384 58.3654 12.7149 54.6931 9.06899 49.737C5.42307 44.7809 3.44253 38.7964 3.4121 32.6439C3.38168 26.4913 5.30292 20.4875 8.89965 15.4956C12.4964 10.5037 17.5833 6.78085 23.4292 4.86222C29.2751 2.94359 35.5787 2.928 41.434 4.8177C47.2893 6.7074 52.3946 10.4051 56.016 15.3791C59.6373 20.3531 61.5883 26.3473 61.5883 32.5H65Z" fill="#6A6A6A"/>
<path d="M21.1973 38.4603C20.5094 38.4603 19.8925 38.3402 19.3466 38.1C18.8007 37.8598 18.3694 37.5268 18.0527 37.101C17.7361 36.6642 17.5778 36.1674 17.5778 35.6106C17.5778 34.9773 17.747 34.4586 18.0855 34.0547C18.4349 33.6507 18.8552 33.3177 19.3466 33.0556V32.9901C18.9426 32.6844 18.6096 32.335 18.3475 31.9419C18.0855 31.5488 17.9545 31.0793 17.9545 30.5334C17.9545 29.9438 18.0964 29.4361 18.3803 29.0103C18.6642 28.5735 19.0572 28.2405 19.5595 28.0112C20.0618 27.7819 20.635 27.6673 21.2792 27.6673C22.2291 27.6673 22.9934 27.9293 23.5721 28.4534C24.1508 28.9666 24.4401 29.6544 24.4401 30.517C24.4401 31.0193 24.3036 31.4669 24.0307 31.86C23.7577 32.2422 23.4411 32.5533 23.0808 32.7936V32.8591C23.583 33.132 24.0088 33.4814 24.3582 33.9073C24.7076 34.3331 24.8823 34.8899 24.8823 35.5778C24.8823 36.1237 24.7295 36.6151 24.4238 37.0518C24.118 37.4886 23.6867 37.8325 23.1299 38.0836C22.584 38.3348 21.9398 38.4603 21.1973 38.4603ZM21.8524 32.204C22.2782 31.7126 22.4912 31.2049 22.4912 30.6808C22.4912 30.2768 22.3765 29.9547 22.1472 29.7145C21.9288 29.4634 21.6231 29.3378 21.2301 29.3378C20.9134 29.3378 20.6404 29.4361 20.4112 29.6326C20.1819 29.8291 20.0672 30.1294 20.0672 30.5334C20.0672 30.9592 20.231 31.2922 20.5586 31.5325C20.8861 31.7727 21.3174 31.9965 21.8524 32.204ZM21.2464 36.7898C21.6504 36.7898 21.9834 36.6861 22.2455 36.4786C22.5075 36.2602 22.6386 35.9327 22.6386 35.4959C22.6386 35.1902 22.5457 34.9391 22.3601 34.7425C22.1745 34.5351 21.9179 34.3549 21.5904 34.2021C21.2628 34.0383 20.8807 33.8636 20.4439 33.678C20.2146 33.8854 20.0235 34.1365 19.8707 34.4314C19.7178 34.7152 19.6414 35.0155 19.6414 35.3321C19.6414 35.7907 19.7997 36.151 20.1163 36.4131C20.433 36.6642 20.8097 36.7898 21.2464 36.7898ZM29.8665 38.4603C28.7528 38.4603 27.852 37.9963 27.1641 37.0682C26.4872 36.1401 26.1487 34.7917 26.1487 33.0228C26.1487 31.254 26.4872 29.922 27.1641 29.0266C27.852 28.1204 28.7528 27.6673 29.8665 27.6673C30.9802 27.6673 31.8755 28.1204 32.5525 29.0266C33.2403 29.922 33.5843 31.254 33.5843 33.0228C33.5843 34.7917 33.2403 36.1401 32.5525 37.0682C31.8755 37.9963 30.9802 38.4603 29.8665 38.4603ZM29.8665 36.5932C30.1394 36.5932 30.3851 36.495 30.6035 36.2984C30.8219 36.091 30.9911 35.7307 31.1112 35.2175C31.2422 34.7043 31.3077 33.9728 31.3077 33.0228C31.3077 32.0729 31.2422 31.3468 31.1112 30.8446C30.9911 30.3423 30.8219 29.9984 30.6035 29.8128C30.3851 29.6272 30.1394 29.5343 29.8665 29.5343C29.6044 29.5343 29.3642 29.6272 29.1458 29.8128C28.9275 29.9984 28.7528 30.3423 28.6218 30.8446C28.4907 31.3468 28.4252 32.0729 28.4252 33.0228C28.4252 33.9728 28.4907 34.7043 28.6218 35.2175C28.7528 35.7307 28.9275 36.091 29.1458 36.2984C29.3642 36.495 29.6044 36.5932 29.8665 36.5932ZM37.2746 34.1693C36.5103 34.1693 35.877 33.869 35.3747 33.2685C34.8725 32.668 34.6213 31.8327 34.6213 30.7627C34.6213 29.6927 34.8725 28.8628 35.3747 28.2732C35.877 27.6836 36.5103 27.3888 37.2746 27.3888C38.0498 27.3888 38.6885 27.6836 39.1908 28.2732C39.693 28.8628 39.9442 29.6927 39.9442 30.7627C39.9442 31.8327 39.693 32.668 39.1908 33.2685C38.6885 33.869 38.0498 34.1693 37.2746 34.1693ZM37.2746 32.8263C37.5475 32.8263 37.7768 32.6735 37.9624 32.3677C38.159 32.062 38.2572 31.527 38.2572 30.7627C38.2572 29.9984 38.159 29.4688 37.9624 29.174C37.7768 28.8792 37.5475 28.7318 37.2746 28.7318C37.0016 28.7318 36.7668 28.8792 36.5703 29.174C36.3847 29.4688 36.2919 29.9984 36.2919 30.7627C36.2919 31.527 36.3847 32.062 36.5703 32.3677C36.7668 32.6735 37.0016 32.8263 37.2746 32.8263ZM37.6349 38.4603L43.3999 27.3888H44.792L39.027 38.4603H37.6349ZM45.1524 38.4603C44.388 38.4603 43.7548 38.1601 43.2525 37.5595C42.7503 36.959 42.4991 36.1237 42.4991 35.0537C42.4991 33.9837 42.7503 33.1539 43.2525 32.5643C43.7548 31.9747 44.388 31.6799 45.1524 31.6799C45.9276 31.6799 46.5663 31.9747 47.0686 32.5643C47.5708 33.1539 47.822 33.9837 47.822 35.0537C47.822 36.1237 47.5708 36.959 47.0686 37.5595C46.5663 38.1601 45.9276 38.4603 45.1524 38.4603ZM45.1524 37.1173C45.4253 37.1173 45.6546 36.9645 45.8402 36.6588C46.0368 36.353 46.135 35.818 46.135 35.0537C46.135 34.2894 46.0368 33.7599 45.8402 33.4651C45.6546 33.1703 45.4253 33.0228 45.1524 33.0228C44.8794 33.0228 44.6446 33.1703 44.4481 33.4651C44.2625 33.7599 44.1697 34.2894 44.1697 35.0537C44.1697 35.818 44.2625 36.353 44.4481 36.6588C44.6446 36.9645 44.8794 37.1173 45.1524 37.1173Z" fill="#6A6A6A"/>
</svg>
