<svg width="65" height="65" viewBox="0 0 65 65" fill="none" xmlns="http://www.w3.org/2000/svg">
<path d="M65 32.5C65 27.2842 63.7447 22.1451 61.3401 17.5167C58.9355 12.8882 55.4522 8.90656 51.1846 5.90796C46.9169 2.90936 41.9903 0.981929 36.8208 0.288502C31.6513 -0.404925 26.3909 0.156017 21.4839 1.92394L22.6403 5.13372C27.0322 3.55139 31.7404 3.04933 36.3672 3.66996C40.994 4.2906 45.4035 6.01569 49.2231 8.6995C53.0428 11.3833 56.1603 14.947 58.3125 19.0896C60.4647 23.2321 61.5883 27.8318 61.5883 32.5H65Z" fill="#6A6A6A"/>
<path d="M20.8697 38.4603C20.029 38.4603 19.3084 38.3238 18.7078 38.0509C18.1182 37.7779 17.6324 37.4231 17.2502 36.9863L18.3639 35.4632C18.6805 35.7689 19.0299 36.02 19.4121 36.2165C19.7942 36.4131 20.2037 36.5114 20.6404 36.5114C21.1536 36.5114 21.5631 36.4076 21.8688 36.2002C22.1745 35.9818 22.3274 35.6761 22.3274 35.283C22.3274 34.9773 22.2509 34.7152 22.0981 34.4969C21.9452 34.2676 21.6668 34.0929 21.2628 33.9728C20.8588 33.8527 20.2801 33.7926 19.5267 33.7926V32.0893C20.4657 32.0893 21.1099 31.9637 21.4593 31.7126C21.8087 31.4506 21.9834 31.1121 21.9834 30.6972C21.9834 30.3369 21.8742 30.0584 21.6559 29.8619C21.4375 29.6545 21.1209 29.5507 20.706 29.5507C20.3347 29.5507 19.9962 29.6326 19.6905 29.7964C19.3957 29.9602 19.0845 30.184 18.757 30.4679L17.545 28.9939C18.0254 28.579 18.5331 28.2569 19.0682 28.0276C19.6032 27.7874 20.1873 27.6673 20.8206 27.6673C21.8906 27.6673 22.7532 27.9184 23.4083 28.4206C24.0744 28.912 24.4074 29.6108 24.4074 30.517C24.4074 31.052 24.2545 31.5106 23.9488 31.8928C23.654 32.2749 23.2282 32.5861 22.6713 32.8263V32.8918C23.2718 33.0665 23.7632 33.3668 24.1453 33.7926C24.5384 34.2075 24.7349 34.7535 24.7349 35.4304C24.7349 36.0746 24.5548 36.626 24.1945 37.0846C23.8451 37.5322 23.3756 37.8762 22.786 38.1164C22.2073 38.3457 21.5685 38.4603 20.8697 38.4603ZM29.8665 38.4603C28.7528 38.4603 27.852 37.9963 27.1641 37.0682C26.4872 36.1401 26.1487 34.7917 26.1487 33.0228C26.1487 31.254 26.4872 29.922 27.1641 29.0266C27.852 28.1204 28.7528 27.6673 29.8665 27.6673C30.9802 27.6673 31.8755 28.1204 32.5525 29.0266C33.2403 29.922 33.5843 31.254 33.5843 33.0228C33.5843 34.7917 33.2403 36.1401 32.5525 37.0682C31.8755 37.9963 30.9802 38.4603 29.8665 38.4603ZM29.8665 36.5932C30.1394 36.5932 30.3851 36.495 30.6035 36.2984C30.8219 36.091 30.9911 35.7307 31.1112 35.2175C31.2422 34.7043 31.3077 33.9728 31.3077 33.0228C31.3077 32.0729 31.2422 31.3468 31.1112 30.8446C30.9911 30.3423 30.8219 29.9984 30.6035 29.8128C30.3851 29.6272 30.1394 29.5343 29.8665 29.5343C29.6044 29.5343 29.3642 29.6272 29.1458 29.8128C28.9275 29.9984 28.7528 30.3423 28.6218 30.8446C28.4907 31.3468 28.4252 32.0729 28.4252 33.0228C28.4252 33.9728 28.4907 34.7043 28.6218 35.2175C28.7528 35.7307 28.9275 36.091 29.1458 36.2984C29.3642 36.495 29.6044 36.5932 29.8665 36.5932ZM37.2746 34.1693C36.5103 34.1693 35.877 33.869 35.3747 33.2685C34.8725 32.668 34.6213 31.8327 34.6213 30.7627C34.6213 29.6927 34.8725 28.8628 35.3747 28.2732C35.877 27.6836 36.5103 27.3888 37.2746 27.3888C38.0498 27.3888 38.6885 27.6836 39.1908 28.2732C39.693 28.8628 39.9442 29.6927 39.9442 30.7627C39.9442 31.8327 39.693 32.668 39.1908 33.2685C38.6885 33.869 38.0498 34.1693 37.2746 34.1693ZM37.2746 32.8263C37.5475 32.8263 37.7768 32.6735 37.9624 32.3677C38.159 32.062 38.2572 31.527 38.2572 30.7627C38.2572 29.9984 38.159 29.4688 37.9624 29.174C37.7768 28.8792 37.5475 28.7318 37.2746 28.7318C37.0016 28.7318 36.7668 28.8792 36.5703 29.174C36.3847 29.4688 36.2919 29.9984 36.2919 30.7627C36.2919 31.527 36.3847 32.062 36.5703 32.3677C36.7668 32.6735 37.0016 32.8263 37.2746 32.8263ZM37.6349 38.4603L43.3999 27.3888H44.792L39.027 38.4603H37.6349ZM45.1524 38.4603C44.388 38.4603 43.7548 38.1601 43.2525 37.5595C42.7503 36.959 42.4991 36.1237 42.4991 35.0537C42.4991 33.9837 42.7503 33.1539 43.2525 32.5643C43.7548 31.9747 44.388 31.6799 45.1524 31.6799C45.9276 31.6799 46.5663 31.9747 47.0686 32.5643C47.5708 33.1539 47.822 33.9837 47.822 35.0537C47.822 36.1237 47.5708 36.959 47.0686 37.5595C46.5663 38.1601 45.9276 38.4603 45.1524 38.4603ZM45.1524 37.1173C45.4253 37.1173 45.6546 36.9645 45.8402 36.6588C46.0368 36.353 46.135 35.818 46.135 35.0537C46.135 34.2894 46.0368 33.7599 45.8402 33.4651C45.6546 33.1703 45.4253 33.0228 45.1524 33.0228C44.8794 33.0228 44.6446 33.1703 44.4481 33.4651C44.2625 33.7599 44.1697 34.2894 44.1697 35.0537C44.1697 35.818 44.2625 36.353 44.4481 36.6588C44.6446 36.9645 44.8794 37.1173 45.1524 37.1173Z" fill="#6A6A6A"/>
</svg>
