<svg width="110" height="29" viewBox="0 0 110 29" fill="none" xmlns="http://www.w3.org/2000/svg">
<path d="M0.977783 28.9637V0.4917H6.26978V24.9637L105.294 25.4637L109.648 28.9637H8.20581H0.977783Z" fill="black"/>
<path d="M16.7019 12.12L16.1259 14.28H21.1299L20.5899 12.12C20.2779 10.944 19.9539 9.69601 19.6179 8.37601C19.3059 7.05601 18.9939 5.78401 18.6819 4.56001H18.5379C18.2499 5.80801 17.9499 7.09201 17.6379 8.41201C17.3499 9.70801 17.0379 10.944 16.7019 12.12ZM8.20586 24L15.5499 0.528009H21.9219L29.2659 24H23.6499L22.2099 18.42H15.0459L13.6059 24H8.20586Z" fill="black"/>
<path d="M31.8306 24V0.528009H38.4546C40.8546 0.528009 42.9306 0.936009 44.6826 1.75201C46.4346 2.56801 47.7906 3.84001 48.7506 5.56801C49.7346 7.27201 50.2266 9.46801 50.2266 12.156C50.2266 14.844 49.7466 17.064 48.7866 18.816C47.8266 20.568 46.4826 21.876 44.7546 22.74C43.0506 23.58 41.0466 24 38.7426 24H31.8306ZM37.1226 19.716H38.1306C39.4746 19.716 40.6386 19.476 41.6226 18.996C42.6306 18.516 43.4106 17.724 43.9626 16.62C44.5146 15.516 44.7906 14.028 44.7906 12.156C44.7906 10.284 44.5146 8.82001 43.9626 7.76401C43.4106 6.68401 42.6306 5.92801 41.6226 5.49601C40.6386 5.04001 39.4746 4.81201 38.1306 4.81201H37.1226V19.716Z" fill="black"/>
<path d="M54.6821 24V0.528009H59.9741V24H54.6821Z" fill="black"/>
<path d="M65.5103 24V0.528009H70.9463L77.0663 12.192L79.3703 17.376H79.5143C79.4183 16.128 79.2863 14.736 79.1183 13.2C78.9503 11.664 78.8663 10.2 78.8663 8.80801V0.528009H83.9063V24H78.4703L72.3503 12.3L70.0463 7.18801H69.9023C70.0223 8.48401 70.1543 9.87601 70.2983 11.364C70.4663 12.852 70.5503 14.292 70.5503 15.684V24H65.5103Z" fill="black"/>
<path d="M98.9917 24.432C96.8797 24.432 95.0197 23.94 93.4117 22.956C91.8277 21.972 90.5797 20.568 89.6677 18.744C88.7797 16.896 88.3357 14.7 88.3357 12.156C88.3357 9.58801 88.7797 7.41601 89.6677 5.64001C90.5797 3.84001 91.8277 2.47201 93.4117 1.53601C95.0197 0.576009 96.8797 0.0960083 98.9917 0.0960083C101.104 0.0960083 102.952 0.576009 104.536 1.53601C106.144 2.47201 107.392 3.84001 108.28 5.64001C109.192 7.44001 109.648 9.61201 109.648 12.156C109.648 14.7 109.192 16.896 108.28 18.744C107.392 20.568 106.144 21.972 104.536 22.956C102.952 23.94 101.104 24.432 98.9917 24.432ZM98.9917 19.86C100.6 19.86 101.872 19.164 102.808 17.772C103.744 16.38 104.212 14.508 104.212 12.156C104.212 9.80401 103.744 7.96801 102.808 6.64801C101.872 5.32801 100.6 4.66801 98.9917 4.66801C97.3837 4.66801 96.1117 5.32801 95.1757 6.64801C94.2397 7.96801 93.7717 9.80401 93.7717 12.156C93.7717 14.508 94.2397 16.38 95.1757 17.772C96.1117 19.164 97.3837 19.86 98.9917 19.86Z" fill="black"/>
</svg>
