<svg width="62" height="62" viewBox="0 0 62 62" fill="none" xmlns="http://www.w3.org/2000/svg">
<g clip-path="url(#clip0_4_214)">
<path d="M0 4.44075C0 1.98787 2.03825 0 4.55312 0H57.4469C59.9618 0 62 1.98787 62 4.44075V57.5592C62 60.0121 59.9618 62 57.4469 62H4.55312C2.03825 62 0 60.0121 0 57.5592V4.44075ZM19.1541 51.9017V23.9049H9.85025V51.9017H19.1541ZM14.5041 20.0802C17.7475 20.0802 19.7664 17.9335 19.7664 15.2443C19.7083 12.4969 17.7514 10.4083 14.5661 10.4083C11.3809 10.4083 9.3 12.5007 9.3 15.2443C9.3 17.9335 11.3189 20.0802 14.4421 20.0802H14.5041ZM33.5226 51.9017V36.2661C33.5226 35.4291 33.5846 34.5921 33.8326 33.9954C34.503 32.3252 36.0336 30.5931 38.6066 30.5931C41.974 30.5931 43.3186 33.1584 43.3186 36.9249V51.9017H52.6225V35.8438C52.6225 27.2412 48.0345 23.2423 41.912 23.2423C36.9753 23.2423 34.7626 25.9548 33.5226 27.8651V27.962H33.4606C33.4812 27.9297 33.5019 27.8974 33.5226 27.8651V23.9049H24.2226C24.3389 26.5321 24.2226 51.9017 24.2226 51.9017H33.5226Z" fill="black"/>
</g>
<defs>
<clipPath id="clip0_4_214">
<rect width="62" height="62" fill="white"/>
</clipPath>
</defs>
</svg>
