<svg width="65" height="65" viewBox="0 0 65 65" fill="none" xmlns="http://www.w3.org/2000/svg">
<path d="M65 32.5C65 25.5673 62.7831 18.8162 58.6731 13.233C54.5632 7.64989 48.7756 3.5273 42.1559 1.46754C35.5362 -0.592211 28.4313 -0.481188 21.8792 1.78439C15.3271 4.04997 9.67113 8.35138 5.73764 14.0602L8.54707 15.996C12.0676 10.8864 17.1298 7.03657 22.9941 5.00882C28.8584 2.98107 35.2175 2.8817 41.1423 4.72523C47.0671 6.56876 52.2471 10.2586 55.9256 15.2556C59.6041 20.2526 61.5883 26.295 61.5883 32.5H65Z" fill="#6A6A6A"/>
<path d="M19.5104 33.94H21.705V32.2531C21.705 31.9146 21.7159 31.527 21.7378 31.0903C21.7705 30.6426 21.7924 30.255 21.8033 29.9274H21.7378C21.6067 30.2113 21.4703 30.5006 21.3283 30.7954C21.1864 31.0903 21.039 31.3851 20.8861 31.6799L19.5104 33.94ZM21.705 38.2638V35.7743H17.2011V34.1202L21.0008 27.8638H23.9488V33.94H25.1444V35.7743H23.9488V38.2638H21.705ZM29.8665 38.4603C28.7528 38.4603 27.852 37.9963 27.1641 37.0682C26.4872 36.1401 26.1487 34.7917 26.1487 33.0228C26.1487 31.254 26.4872 29.922 27.1641 29.0266C27.852 28.1204 28.7528 27.6673 29.8665 27.6673C30.9802 27.6673 31.8755 28.1204 32.5525 29.0266C33.2403 29.922 33.5843 31.254 33.5843 33.0228C33.5843 34.7917 33.2403 36.1401 32.5525 37.0682C31.8755 37.9963 30.9802 38.4603 29.8665 38.4603ZM29.8665 36.5932C30.1394 36.5932 30.3851 36.495 30.6035 36.2984C30.8219 36.091 30.9911 35.7307 31.1112 35.2175C31.2422 34.7043 31.3077 33.9728 31.3077 33.0228C31.3077 32.0729 31.2422 31.3468 31.1112 30.8446C30.9911 30.3423 30.8219 29.9984 30.6035 29.8128C30.3851 29.6272 30.1394 29.5343 29.8665 29.5343C29.6044 29.5343 29.3642 29.6272 29.1458 29.8128C28.9275 29.9984 28.7528 30.3423 28.6218 30.8446C28.4907 31.3468 28.4252 32.0729 28.4252 33.0228C28.4252 33.9728 28.4907 34.7043 28.6218 35.2175C28.7528 35.7307 28.9275 36.091 29.1458 36.2984C29.3642 36.495 29.6044 36.5932 29.8665 36.5932ZM37.2746 34.1693C36.5103 34.1693 35.877 33.869 35.3747 33.2685C34.8725 32.668 34.6213 31.8327 34.6213 30.7627C34.6213 29.6927 34.8725 28.8628 35.3747 28.2732C35.877 27.6836 36.5103 27.3888 37.2746 27.3888C38.0498 27.3888 38.6885 27.6836 39.1908 28.2732C39.693 28.8628 39.9442 29.6927 39.9442 30.7627C39.9442 31.8327 39.693 32.668 39.1908 33.2685C38.6885 33.869 38.0498 34.1693 37.2746 34.1693ZM37.2746 32.8263C37.5475 32.8263 37.7768 32.6735 37.9624 32.3677C38.159 32.062 38.2572 31.527 38.2572 30.7627C38.2572 29.9984 38.159 29.4688 37.9624 29.174C37.7768 28.8792 37.5475 28.7318 37.2746 28.7318C37.0016 28.7318 36.7668 28.8792 36.5703 29.174C36.3847 29.4688 36.2919 29.9984 36.2919 30.7627C36.2919 31.527 36.3847 32.062 36.5703 32.3677C36.7668 32.6735 37.0016 32.8263 37.2746 32.8263ZM37.6349 38.4603L43.3999 27.3888H44.792L39.027 38.4603H37.6349ZM45.1524 38.4603C44.388 38.4603 43.7548 38.1601 43.2525 37.5595C42.7503 36.959 42.4991 36.1237 42.4991 35.0537C42.4991 33.9837 42.7503 33.1539 43.2525 32.5643C43.7548 31.9747 44.388 31.6799 45.1524 31.6799C45.9276 31.6799 46.5663 31.9747 47.0686 32.5643C47.5708 33.1539 47.822 33.9837 47.822 35.0537C47.822 36.1237 47.5708 36.959 47.0686 37.5595C46.5663 38.1601 45.9276 38.4603 45.1524 38.4603ZM45.1524 37.1173C45.4253 37.1173 45.6546 36.9645 45.8402 36.6588C46.0368 36.353 46.135 35.818 46.135 35.0537C46.135 34.2894 46.0368 33.7599 45.8402 33.4651C45.6546 33.1703 45.4253 33.0228 45.1524 33.0228C44.8794 33.0228 44.6446 33.1703 44.4481 33.4651C44.2625 33.7599 44.1697 34.2894 44.1697 35.0537C44.1697 35.818 44.2625 36.353 44.4481 36.6588C44.6446 36.9645 44.8794 37.1173 45.1524 37.1173Z" fill="#6A6A6A"/>
</svg>
