<svg width="94" height="29" viewBox="0 0 94 29" fill="none" xmlns="http://www.w3.org/2000/svg">
<path d="M9.07998 15.76L6.15998 19.6V28H0.919983V0.0799866H6.15998V12.64H6.39998L9.63998 7.99999L15.52 0.0799866H21.44L12.68 11.84L25.1444 28H17.5L9.07998 15.76Z" fill="white"/>
<path d="M40 26L37.9844 20.92H29.7044L27.7844 28H22.5044L30.3444 0.0799866H37.6244L45.5044 28L40 26ZM34.0244 5.23999H33.7044L30.6244 16.64H37.1044L34.0244 5.23999Z" fill="white"/>
<path d="M53.6887 0.0799866V17.48C53.6887 18.52 53.7154 19.4533 53.7687 20.28C53.8487 21.1067 54.0221 21.8133 54.2887 22.4C54.5821 22.96 55.0087 23.4 55.5687 23.72C56.1554 24.04 56.9554 24.2 57.9687 24.2C58.9821 24.2 59.7687 24.04 60.3287 23.72C60.9154 23.4 61.3421 22.96 61.6087 22.4C61.9021 21.8133 62.0754 21.1067 62.1287 20.28C62.2087 19.4533 62.2487 18.52 62.2487 17.48V13.5L67.4887 8.28774V16.68C67.4887 18.6533 67.3687 20.3733 67.1287 21.84C66.8887 23.3067 66.4221 24.5333 65.7287 25.52C65.0354 26.5067 64.0621 27.2533 62.8087 27.76C61.5821 28.24 59.9687 28.48 57.9687 28.48C55.9687 28.48 54.3421 28.24 53.0887 27.76C51.8621 27.2533 50.9021 26.5067 50.2087 25.52C49.5154 24.5333 49.0487 23.3067 48.8087 21.84C48.5687 20.3733 48.4487 18.6533 48.4487 16.68V0.0799866H53.6887Z" fill="#215B9F"/>
<path d="M87.9131 28L85.9531 20.92H77.6731L75.7531 28H70.4731L78.3131 0.0799866H85.5931L93.4731 28H87.9131ZM81.9931 5.23999H81.6731L78.5931 16.64H85.0731L81.9931 5.23999Z" fill="white"/>
</svg>
