<svg width="17" height="16" viewBox="0 0 17 16" fill="none" xmlns="http://www.w3.org/2000/svg">
<g clip-path="url(#clip0_126_39)">
<path d="M8.5 4C9.24 4 9.83333 3.4 9.83333 2.66667C9.83333 2.41333 9.76667 2.18 9.64 1.98L8.5 0L7.36 1.98C7.23333 2.18 7.16667 2.41333 7.16667 2.66667C7.16667 3.4 7.76667 4 8.5 4ZM11.5667 10.66L10.8533 9.94667L10.1333 10.66C9.26667 11.5267 7.74667 11.5333 6.87333 10.66L6.16 9.94667L5.43333 10.66C5 11.0933 4.42 11.3333 3.80667 11.3333C3.32 11.3333 2.87333 11.18 2.5 10.9267V14C2.5 14.3667 2.8 14.6667 3.16667 14.6667H13.8333C14.2 14.6667 14.5 14.3667 14.5 14V10.9267C14.1267 11.18 13.68 11.3333 13.1933 11.3333C12.58 11.3333 12 11.0933 11.5667 10.66ZM12.5 6H9.16667V4.66667H7.83333V6H4.5C3.39333 6 2.5 6.89333 2.5 8V9.02667C2.5 9.74667 3.08667 10.3333 3.80667 10.3333C4.15333 10.3333 4.48667 10.2 4.72667 9.95333L6.15333 8.53333L7.57333 9.95333C8.06667 10.4467 8.92667 10.4467 9.42 9.95333L10.8467 8.53333L12.2667 9.95333C12.5133 10.2 12.84 10.3333 13.1867 10.3333C13.9067 10.3333 14.4933 9.74667 14.4933 9.02667V8C14.5 6.89333 13.6067 6 12.5 6Z" fill="currentColor"/>
</g>
<defs>
<clipPath id="clip0_126_39">
<rect width="16" height="16" fill="white" transform="translate(0.5)"/>
</clipPath>
</defs>
</svg>
