<svg width="17" height="16" viewBox="0 0 17 16" fill="none" xmlns="http://www.w3.org/2000/svg">
<g clip-path="url(#clip0_126_45)">
<path d="M13.1667 2.66668H12.5V1.33334H11.1667V2.66668H5.83333V1.33334H4.5V2.66668H3.83333C3.09333 2.66668 2.50667 3.26668 2.50667 4.00001L2.5 13.3333C2.5 14.0667 3.09333 14.6667 3.83333 14.6667H13.1667C13.9 14.6667 14.5 14.0667 14.5 13.3333V4.00001C14.5 3.26668 13.9 2.66668 13.1667 2.66668ZM13.1667 13.3333H3.83333V6.66668H13.1667V13.3333ZM6.5 9.33334H5.16667V8.00001H6.5V9.33334ZM9.16667 9.33334H7.83333V8.00001H9.16667V9.33334ZM11.8333 9.33334H10.5V8.00001H11.8333V9.33334ZM6.5 12H5.16667V10.6667H6.5V12ZM9.16667 12H7.83333V10.6667H9.16667V12ZM11.8333 12H10.5V10.6667H11.8333V12Z" fill="currentColor"/>
</g>
<defs>
<clipPath id="clip0_126_45">
<rect width="16" height="16" fill="white" transform="translate(0.5)"/>
</clipPath>
</defs>
</svg>
