<svg width="24" height="24" viewBox="0 0 24 24" fill="none" xmlns="http://www.w3.org/2000/svg">
<g clip-path="url(#clip0_101_4)">
<path d="M9 0.416998C9.14642 0.594916 9.23612 0.812656 9.25751 1.04208C9.27891 1.27151 9.231 1.50208 9.12 1.704C8.25279 3.29621 7.7999 5.08094 7.803 6.894C7.803 12.9255 12.72 17.8095 18.78 17.8095C19.5705 17.8095 20.34 17.727 21.0795 17.5695C21.3062 17.5204 21.5423 17.5392 21.7584 17.6235C21.9745 17.7078 22.1609 17.8539 22.2945 18.0435C22.4355 18.2407 22.5074 18.4789 22.499 18.7212C22.4905 18.9634 22.4023 19.1961 22.248 19.383C21.0715 20.8282 19.5874 21.9925 17.9038 22.7913C16.2201 23.59 14.3795 24.003 12.516 24C5.601 24 0 18.429 0 11.565C0 6.399 3.171 1.968 7.686 0.0899976C7.91091 -0.0050546 8.16058 -0.0245636 8.39753 0.0344011C8.63447 0.0933659 8.84588 0.227621 9 0.416998Z" fill="currentColor"/>
</g>
<defs>
<clipPath id="clip0_101_4">
<rect width="24" height="24" fill="white"/>
</clipPath>
</defs>
</svg>
