<svg width="32" height="32" viewBox="0 0 32 32" fill="none" xmlns="http://www.w3.org/2000/svg">
<g clip-path="url(#clip0_3_86)">
<path d="M16 13.48C16.492 13.48 16.973 13.6256 17.3824 13.8984C17.7919 14.1712 18.1114 14.559 18.3009 15.0131C18.4904 15.4671 18.5413 15.9671 18.4472 16.45C18.3532 16.9329 18.1183 17.3772 17.7723 17.7269C17.4262 18.0767 16.9845 18.3162 16.5026 18.4154C16.0207 18.5146 15.5202 18.469 15.0642 18.2844C14.6082 18.0998 14.2169 17.7843 13.9398 17.3778C13.6626 16.9713 13.512 16.4919 13.5067 16C13.5049 15.6708 13.568 15.3445 13.6924 15.0397C13.8167 14.7349 13.9999 14.4576 14.2314 14.2236C14.463 13.9896 14.7383 13.8034 15.0418 13.6759C15.3452 13.5483 15.6708 13.4817 16 13.48ZM9.82669 26.6666C10.6667 27.1733 12.4934 26.4 14.6267 24.4C13.9137 23.5897 13.2417 22.7442 12.6134 21.8666C11.5379 21.7462 10.4697 21.5681 9.41335 21.3333C8.73335 24.1866 8.98669 26.1466 9.82669 26.6666ZM10.7734 19.0133L10.3867 18.3333C10.236 18.7078 10.1069 19.0906 10 19.48C10.36 19.56 10.76 19.6266 11.1734 19.6933L10.7734 19.0133ZM19.4934 18L20.5734 16L19.4934 14C19.0934 13.2933 18.6667 12.6666 18.28 12.04C17.56 12 16.8 12 16 12C15.2 12 14.44 12 13.72 12C13.3334 12.6266 12.9067 13.2533 12.5067 13.96L11.4267 16L12.5067 18C12.9067 18.7066 13.3334 19.3333 13.72 19.96C14.44 19.96 15.2 19.96 16 19.96C16.8 19.96 17.56 19.96 18.28 19.96C18.6667 19.3333 19.0934 18.7066 19.4934 18ZM16 9.03996C15.7467 9.33329 15.48 9.63996 15.2134 9.99996H16.7867C16.52 9.63996 16.2534 9.33329 16 9.03996ZM16 22.96C16.2534 22.6666 16.52 22.36 16.7867 22H15.2134C15.48 22.36 15.7467 22.6666 16 22.96ZM22.16 5.33329C21.3334 4.82662 19.4934 5.59996 17.3734 7.59996C18.0864 8.41023 18.7583 9.25573 19.3867 10.1333C20.4612 10.2361 21.5293 10.3963 22.5867 10.6133C23.2667 7.75996 23.0134 5.79996 22.16 5.27996M21.2267 12.9333L21.6134 13.6133C21.7641 13.2388 21.8932 12.8559 22 12.4666C21.64 12.3866 21.24 12.32 20.8267 12.2533L21.2267 12.9333ZM23.16 3.59996C25.12 4.71996 25.3334 7.66662 24.4934 11.1066C27.88 12.1066 30.32 13.7733 30.32 16.0133C30.32 18.2533 27.88 19.92 24.4934 20.92C25.32 24.36 25.1067 27.3066 23.16 28.4266C21.2134 29.5466 18.56 28.2666 16 25.8266C13.44 28.2666 10.7867 29.5466 8.82669 28.4266C6.86669 27.3066 6.66669 24.4266 7.49335 20.92C4.10669 19.92 1.66669 18.2533 1.66669 16.0133C1.66669 13.7733 4.10669 12.0933 7.49335 11.0933C6.66669 7.65329 6.88002 4.70662 8.82669 3.58662C10.7734 2.46662 13.44 3.74662 16 6.18662C18.56 3.74662 21.2134 2.46662 23.16 3.58662M22.7734 16C23.2364 16.9815 23.6459 17.9874 24 19.0133C26.8 18.1733 28.3734 16.9733 28.3734 16C28.3734 15.0266 26.76 13.8266 24 12.9866C23.6459 14.0125 23.2364 15.0184 22.7734 16ZM9.22669 16C8.76362 15.0184 8.35413 14.0125 8.00002 12.9866C5.20002 13.8266 3.62669 15.0266 3.62669 16C3.62669 16.9733 5.24002 18.1733 8.00002 19.0133C8.35413 17.9874 8.76362 16.9815 9.22669 16ZM21.2267 19.0133L20.8267 19.6933C21.24 19.6933 21.64 19.56 22 19.48C21.8932 19.0906 21.7641 18.7078 21.6134 18.3333L21.2267 19.0133ZM17.3334 24.4C19.4534 26.4 21.3334 27.1733 22.12 26.6666C22.9067 26.16 23.2267 24.24 22.5467 21.3333C21.4893 21.5502 20.4212 21.7105 19.3467 21.8133C18.7198 22.709 18.0478 23.5724 17.3334 24.4ZM10.7734 12.9866L11.1734 12.3066C10.76 12.3066 10.36 12.44 10 12.52C10.1069 12.9093 10.236 13.2921 10.3867 13.6666L10.7734 12.9866ZM14.6667 7.59996C12.5067 5.59996 10.6667 4.82662 9.82669 5.33329C8.98669 5.83996 8.73335 7.75996 9.41335 10.6666C10.4707 10.4497 11.5389 10.2894 12.6134 10.1866C13.2532 9.28994 13.9386 8.42659 14.6667 7.59996Z" fill="#070708"/>
</g>
<defs>
<clipPath id="clip0_3_86">
<rect width="32" height="32" fill="white"/>
</clipPath>
</defs>
</svg>
