<svg width="32" height="32" viewBox="0 0 32 32" fill="none" xmlns="http://www.w3.org/2000/svg">
<g clip-path="url(#clip0_3_67)">
<path d="M16 6.375C11.7333 6.375 9.06667 8.50833 8 12.775C9.6 10.6417 11.4667 9.84167 13.6 10.375C14.8172 10.6793 15.6872 11.5623 16.6501 12.5398C18.2188 14.1321 20.0344 15.975 24 15.975C28.2667 15.975 30.9333 13.8417 32 9.575C30.4 11.7083 28.5333 12.5083 26.4 11.975C25.1828 11.6707 24.3128 10.7877 23.3499 9.8102C21.7812 8.2179 19.9656 6.375 16 6.375ZM8 15.975C3.73333 15.975 1.06667 18.1083 0 22.375C1.6 20.2417 3.46667 19.4417 5.6 19.975C6.81718 20.2793 7.68717 21.1623 8.65013 22.1398C10.2188 23.7321 12.0344 25.575 16 25.575C20.2667 25.575 22.9333 23.4417 24 19.175C22.4 21.3083 20.5333 22.1083 18.4 21.575C17.1828 21.2707 16.3128 20.3877 15.3499 19.4102C13.7812 17.8179 11.9656 15.975 8 15.975Z" fill="currentColor"/>
</g>
<defs>
<clipPath id="clip0_3_67">
<rect width="32" height="32" fill="white"/>
</clipPath>
</defs>
</svg>
