<svg width="16" height="17" viewBox="0 0 16 17" fill="none" xmlns="http://www.w3.org/2000/svg">
<path fill-rule="evenodd" clip-rule="evenodd" d="M4 8.50001C4 8.63261 4.05268 8.75979 4.14645 8.85356C4.24021 8.94733 4.36739 9.00001 4.5 9.00001H10.293L8.146 11.146C8.09951 11.1925 8.06263 11.2477 8.03748 11.3084C8.01232 11.3692 7.99937 11.4343 7.99937 11.5C7.99937 11.5658 8.01232 11.6309 8.03748 11.6916C8.06263 11.7523 8.09951 11.8075 8.146 11.854C8.19249 11.9005 8.24768 11.9374 8.30842 11.9625C8.36915 11.9877 8.43425 12.0006 8.5 12.0006C8.56574 12.0006 8.63084 11.9877 8.69158 11.9625C8.75232 11.9374 8.80751 11.9005 8.854 11.854L11.854 8.85401C11.9006 8.80756 11.9375 8.75238 11.9627 8.69164C11.9879 8.63089 12.0009 8.56577 12.0009 8.50001C12.0009 8.43424 11.9879 8.36912 11.9627 8.30837C11.9375 8.24763 11.9006 8.19245 11.854 8.14601L8.854 5.14601C8.76011 5.05212 8.63277 4.99937 8.5 4.99937C8.36722 4.99937 8.23989 5.05212 8.146 5.14601C8.05211 5.23989 7.99937 5.36723 7.99937 5.50001C7.99937 5.63278 8.05211 5.76012 8.146 5.85401L10.293 8.00001H4.5C4.36739 8.00001 4.24021 8.05268 4.14645 8.14645C4.05268 8.24022 4 8.3674 4 8.50001Z" fill="currentColor"/>
</svg>
