<svg width="32" height="32" viewBox="0 0 32 32" fill="none" xmlns="http://www.w3.org/2000/svg">
<g clip-path="url(#clip0_4_376)">
<path d="M27.09 5.81392C25.015 4.86165 22.8255 4.182 20.576 3.79192C20.5556 3.78848 20.5347 3.79145 20.5161 3.8004C20.4974 3.80936 20.482 3.82386 20.472 3.84192C20.19 4.34192 19.878 4.99592 19.66 5.50792C17.2352 5.13993 14.7688 5.13993 12.344 5.50792C12.1008 4.93756 11.8257 4.38134 11.52 3.84192C11.5097 3.82406 11.4943 3.80972 11.4758 3.8008C11.4572 3.79187 11.4364 3.78878 11.416 3.79192C9.166 4.17992 6.976 4.85992 4.902 5.81392C4.88425 5.82069 4.86941 5.83341 4.86 5.84992C0.712002 12.0479 -0.425998 18.0939 0.132002 24.0639C0.134002 24.0919 0.152002 24.1199 0.174002 24.1379C2.58945 25.9271 5.29118 27.2932 8.164 28.1779C8.18429 28.1843 8.20608 28.1841 8.22622 28.1772C8.24636 28.1704 8.2638 28.1573 8.276 28.1399C8.892 27.2999 9.44 26.4139 9.912 25.4819C9.92184 25.4627 9.92521 25.4409 9.9216 25.4196C9.918 25.3983 9.90762 25.3788 9.892 25.3639C9.88167 25.3542 9.8694 25.3467 9.856 25.3419C8.99432 25.0108 8.15979 24.6129 7.36 24.1519C7.33766 24.1393 7.32105 24.1185 7.3136 24.0939C7.30616 24.0693 7.30845 24.0428 7.32 24.0199C7.32681 24.005 7.3371 23.992 7.35 23.9819C7.518 23.8559 7.686 23.7239 7.846 23.5919C7.86014 23.5806 7.87709 23.5732 7.89506 23.5708C7.91303 23.5683 7.93133 23.5708 7.948 23.5779C13.186 25.9699 18.856 25.9699 24.03 23.5779C24.0473 23.5704 24.0663 23.5678 24.0849 23.5703C24.1036 23.5727 24.1213 23.5802 24.136 23.5919C24.296 23.7239 24.464 23.8559 24.632 23.9819C24.6456 23.9919 24.6566 24.005 24.6638 24.0202C24.6711 24.0354 24.6745 24.0522 24.6737 24.0691C24.6729 24.0859 24.668 24.1023 24.6593 24.1168C24.6506 24.1312 24.6385 24.1433 24.624 24.1519C23.826 24.6171 22.9904 25.0145 22.126 25.3399C22.1122 25.3449 22.0997 25.3529 22.0893 25.3632C22.079 25.3736 22.071 25.3861 22.066 25.3999C22.0614 25.4133 22.0595 25.4274 22.0606 25.4415C22.0616 25.4556 22.0655 25.4694 22.072 25.4819C22.552 26.4119 23.102 27.2999 23.706 28.1399C23.7182 28.1573 23.7356 28.1704 23.7558 28.1772C23.7759 28.1841 23.7977 28.1843 23.818 28.1779C26.6956 27.296 29.4017 25.9297 31.82 24.1379C31.8321 24.1295 31.8422 24.1185 31.8495 24.1057C31.8567 24.0929 31.861 24.0786 31.862 24.0639C32.53 17.1619 30.744 11.1659 27.13 5.85192C27.1264 5.84314 27.1209 5.83522 27.114 5.82868C27.1071 5.82213 27.099 5.8171 27.09 5.81392ZM10.694 20.4279C9.116 20.4279 7.818 18.9799 7.818 17.2039C7.818 15.4259 9.092 13.9779 10.694 13.9779C12.308 13.9779 13.594 15.4379 13.57 17.2039C13.57 18.9799 12.296 20.4279 10.694 20.4279ZM21.326 20.4279C19.75 20.4279 18.45 18.9799 18.45 17.2039C18.45 15.4259 19.724 13.9779 21.326 13.9779C22.94 13.9779 24.228 15.4379 24.202 17.2039C24.202 18.9799 22.94 20.4279 21.326 20.4279Z" fill="#141C1C"/>
</g>
<defs>
<clipPath id="clip0_4_376">
<rect width="32" height="32" fill="white"/>
</clipPath>
</defs>
</svg>
