<svg width="32" height="32" viewBox="0 0 32 32" fill="none" xmlns="http://www.w3.org/2000/svg">
<path d="M0 7.99988C0 6.93901 0.421427 5.9216 1.17157 5.17145C1.92172 4.42131 2.93913 3.99988 4 3.99988H28C29.0609 3.99988 30.0783 4.42131 30.8284 5.17145C31.5786 5.9216 32 6.93901 32 7.99988V23.9999C32 25.0607 31.5786 26.0782 30.8284 26.8283C30.0783 27.5784 29.0609 27.9999 28 27.9999H4C2.93913 27.9999 1.92172 27.5784 1.17157 26.8283C0.421427 26.0782 0 25.0607 0 23.9999V7.99988ZM4 5.99988C3.46957 5.99988 2.96086 6.21059 2.58579 6.58566C2.21071 6.96074 2 7.46944 2 7.99988V8.43388L16 16.8339L30 8.43388V7.99988C30 7.46944 29.7893 6.96074 29.4142 6.58566C29.0391 6.21059 28.5304 5.99988 28 5.99988H4ZM30 10.7659L20.584 16.4159L30 22.2099V10.7659ZM29.932 24.5179L18.652 17.5759L16 19.1659L13.348 17.5759L2.068 24.5159C2.18165 24.9415 2.43263 25.3176 2.78198 25.586C3.13133 25.8543 3.55949 25.9998 4 25.9999H28C28.4402 25.9999 28.8682 25.8547 29.2175 25.5868C29.5668 25.3188 29.818 24.9431 29.932 24.5179ZM2 22.2099L11.416 16.4159L2 10.7659V22.2099Z" fill="url(#paint0_linear_108_40)"/>
<defs>
<linearGradient id="paint0_linear_108_40" x1="16" y1="3.99988" x2="16" y2="27.9999" gradientUnits="userSpaceOnUse">
<stop stop-color="#0E7AF8"/>
<stop offset="0.9999" stop-color="#0450A8"/>
</linearGradient>
</defs>
</svg>
