<svg width="32" height="32" viewBox="0 0 32 32" fill="none" xmlns="http://www.w3.org/2000/svg">
<path d="M3 3C3 2.73478 3.10536 2.48043 3.29289 2.29289C3.48043 2.10536 3.73478 2 4 2H28C28.2652 2 28.5196 2.10536 28.7071 2.29289C28.8946 2.48043 29 2.73478 29 3V7C29 7.24662 28.9088 7.48452 28.744 7.668L20 17.384V27C19.9998 27.2098 19.9337 27.4142 19.8109 27.5844C19.6882 27.7545 19.515 27.8817 19.316 27.948L13.316 29.948C13.1657 29.998 13.0058 30.0117 12.8492 29.9878C12.6926 29.9639 12.544 29.9032 12.4155 29.8106C12.287 29.7181 12.1823 29.5963 12.1101 29.4554C12.0379 29.3144 12.0001 29.1584 12 29V17.384L3.256 7.668C3.09122 7.48452 3.00004 7.24662 3 7V3Z" fill="#11DDAA"/>
</svg>
