<svg width="32" height="32" viewBox="0 0 32 32" fill="none" xmlns="http://www.w3.org/2000/svg">
<g clip-path="url(#clip0_108_46)">
<path d="M16 -0.00012207C7.16 -0.00012207 0 7.15988 0 15.9999C0 23.0799 4.58 29.0599 10.94 31.1799C11.74 31.3199 12.04 30.8399 12.04 30.4199C12.04 30.0399 12.02 28.7799 12.02 27.4399C8 28.1799 6.96 26.4599 6.64 25.5599C6.46 25.0999 5.68 23.6799 5 23.2999C4.44 22.9999 3.64 22.2599 4.98 22.2399C6.24 22.2199 7.14 23.3999 7.44 23.8799C8.88 26.2999 11.18 25.6199 12.1 25.1999C12.24 24.1599 12.66 23.4599 13.12 23.0599C9.56 22.6599 5.84 21.2799 5.84 15.1599C5.84 13.4199 6.46 11.9799 7.48 10.8599C7.32 10.4599 6.76 8.81988 7.64 6.61988C7.64 6.61988 8.98 6.19988 12.04 8.25988C13.32 7.89988 14.68 7.71988 16.04 7.71988C17.4 7.71988 18.76 7.89988 20.04 8.25988C23.1 6.17988 24.44 6.61988 24.44 6.61988C25.32 8.81988 24.76 10.4599 24.6 10.8599C25.62 11.9799 26.24 13.3999 26.24 15.1599C26.24 21.2999 22.5 22.6599 18.94 23.0599C19.52 23.5599 20.02 24.5199 20.02 26.0199C20.02 28.1599 20 29.8799 20 30.4199C20 30.8399 20.3 31.3399 21.1 31.1799C24.2765 30.1079 27.0367 28.0666 28.9921 25.3434C30.9474 22.6202 31.9994 19.3524 32 15.9999C32 7.15988 24.84 -0.00012207 16 -0.00012207Z" fill="url(#paint0_linear_108_46)"/>
</g>
<defs>
<linearGradient id="paint0_linear_108_46" x1="16" y1="-0.00012207" x2="16" y2="31.2104" gradientUnits="userSpaceOnUse">
<stop stop-color="#0E7AF8"/>
<stop offset="0.9999" stop-color="#0450A8"/>
</linearGradient>
<clipPath id="clip0_108_46">
<rect width="32" height="32" fill="white"/>
</clipPath>
</defs>
</svg>
