<svg width="88" height="16" viewBox="0 0 88 16" fill="none" xmlns="http://www.w3.org/2000/svg">
<path d="M0.96 15C0.826667 15 0.713333 14.96 0.62 14.88C0.54 14.7867 0.5 14.6733 0.5 14.54V1.26C0.5 1.12667 0.54 1.02 0.62 0.940004C0.713333 0.84667 0.826667 0.800003 0.96 0.800003H1.9C2.03333 0.800003 2.14 0.84667 2.22 0.940004C2.31333 1.02 2.36 1.12667 2.36 1.26V8.22L6.3 4.94C6.46 4.80667 6.58 4.72 6.66 4.68C6.75333 4.62667 6.9 4.6 7.1 4.6H8.16C8.28 4.6 8.38 4.64 8.46 4.72C8.54 4.8 8.58 4.9 8.58 5.02C8.58 5.07334 8.56 5.13334 8.52 5.2C8.49333 5.26667 8.43333 5.33334 8.34 5.4L3.72 9.24L8.84 14.22C9 14.3533 9.08 14.4733 9.08 14.58C9.08 14.7 9.04 14.8 8.96 14.88C8.88 14.96 8.78 15 8.66 15H7.62C7.42 15 7.27333 14.98 7.18 14.94C7.08667 14.8867 6.96667 14.7933 6.82 14.66L2.36 10.4V14.54C2.36 14.6733 2.31333 14.7867 2.22 14.88C2.14 14.96 2.03333 15 1.9 15H0.96Z" fill="#0C1012"/>
<path d="M13.4972 15.2C12.8305 15.2 12.2239 15.0667 11.6772 14.8C11.1305 14.5333 10.6905 14.1733 10.3572 13.72C10.0239 13.2667 9.85719 12.7533 9.85719 12.18C9.85719 11.26 10.2305 10.5267 10.9772 9.98C11.7239 9.43334 12.6972 9.07334 13.8972 8.9L16.8772 8.48V7.9C16.8772 7.26 16.6905 6.76 16.3172 6.4C15.9572 6.04 15.3639 5.86 14.5372 5.86C13.9372 5.86 13.4505 5.98 13.0772 6.22C12.7172 6.46 12.4639 6.76667 12.3172 7.14C12.2372 7.34 12.0972 7.44 11.8972 7.44H10.9972C10.8505 7.44 10.7372 7.4 10.6572 7.32C10.5905 7.22667 10.5572 7.12 10.5572 7C10.5572 6.8 10.6305 6.55334 10.7772 6.26C10.9372 5.96667 11.1772 5.68 11.4972 5.4C11.8172 5.12 12.2239 4.88667 12.7172 4.7C13.2239 4.5 13.8372 4.4 14.5572 4.4C15.3572 4.4 16.0305 4.50667 16.5772 4.72C17.1239 4.92 17.5505 5.19334 17.8572 5.54C18.1772 5.88667 18.4039 6.28 18.5372 6.72C18.6839 7.16 18.7572 7.60667 18.7572 8.06V14.54C18.7572 14.6733 18.7105 14.7867 18.6172 14.88C18.5372 14.96 18.4305 15 18.2972 15H17.3772C17.2305 15 17.1172 14.96 17.0372 14.88C16.9572 14.7867 16.9172 14.6733 16.9172 14.54V13.68C16.7439 13.92 16.5105 14.16 16.2172 14.4C15.9239 14.6267 15.5572 14.82 15.1172 14.98C14.6772 15.1267 14.1372 15.2 13.4972 15.2ZM13.9172 13.7C14.4639 13.7 14.9639 13.5867 15.4172 13.36C15.8705 13.12 16.2239 12.7533 16.4772 12.26C16.7439 11.7667 16.8772 11.1467 16.8772 10.4V9.84L14.5572 10.18C13.6105 10.3133 12.8972 10.54 12.4172 10.86C11.9372 11.1667 11.6972 11.56 11.6972 12.04C11.6972 12.4133 11.8039 12.7267 12.0172 12.98C12.2439 13.22 12.5239 13.4 12.8572 13.52C13.2039 13.64 13.5572 13.7 13.9172 13.7Z" fill="#0C1012"/>
<path d="M25.5123 15.2C24.659 15.2 23.9323 15.0133 23.3323 14.64C22.7457 14.2533 22.299 13.72 21.9923 13.04C21.6857 12.36 21.5323 11.58 21.5323 10.7V5.06C21.5323 4.92667 21.5723 4.82 21.6523 4.74C21.7457 4.64667 21.859 4.6 21.9923 4.6H22.9923C23.1257 4.6 23.2323 4.64667 23.3123 4.74C23.4057 4.82 23.4523 4.92667 23.4523 5.06V10.6C23.4523 12.5867 24.319 13.58 26.0523 13.58C26.879 13.58 27.539 13.32 28.0323 12.8C28.539 12.2667 28.7923 11.5333 28.7923 10.6V5.06C28.7923 4.92667 28.8323 4.82 28.9123 4.74C29.0057 4.64667 29.119 4.6 29.2523 4.6H30.2323C30.379 4.6 30.4923 4.64667 30.5723 4.74C30.6523 4.82 30.6923 4.92667 30.6923 5.06V14.54C30.6923 14.6733 30.6523 14.7867 30.5723 14.88C30.4923 14.96 30.379 15 30.2323 15H29.3123C29.179 15 29.0657 14.96 28.9723 14.88C28.8923 14.7867 28.8523 14.6733 28.8523 14.54V13.66C28.4923 14.1267 28.0523 14.5 27.5323 14.78C27.0257 15.06 26.3523 15.2 25.5123 15.2Z" fill="#0C1012"/>
<path d="M36.5636 15.2C35.8969 15.2 35.2903 15.0667 34.7436 14.8C34.1969 14.5333 33.7569 14.1733 33.4236 13.72C33.0903 13.2667 32.9236 12.7533 32.9236 12.18C32.9236 11.26 33.2969 10.5267 34.0436 9.98C34.7903 9.43334 35.7636 9.07334 36.9636 8.9L39.9436 8.48V7.9C39.9436 7.26 39.7569 6.76 39.3836 6.4C39.0236 6.04 38.4303 5.86 37.6036 5.86C37.0036 5.86 36.5169 5.98 36.1436 6.22C35.7836 6.46 35.5303 6.76667 35.3836 7.14C35.3036 7.34 35.1636 7.44 34.9636 7.44H34.0636C33.9169 7.44 33.8036 7.4 33.7236 7.32C33.6569 7.22667 33.6236 7.12 33.6236 7C33.6236 6.8 33.6969 6.55334 33.8436 6.26C34.0036 5.96667 34.2436 5.68 34.5636 5.4C34.8836 5.12 35.2903 4.88667 35.7836 4.7C36.2903 4.5 36.9036 4.4 37.6236 4.4C38.4236 4.4 39.0969 4.50667 39.6436 4.72C40.1903 4.92 40.6169 5.19334 40.9236 5.54C41.2436 5.88667 41.4703 6.28 41.6036 6.72C41.7503 7.16 41.8236 7.60667 41.8236 8.06V14.54C41.8236 14.6733 41.7769 14.7867 41.6836 14.88C41.6036 14.96 41.4969 15 41.3636 15H40.4436C40.2969 15 40.1836 14.96 40.1036 14.88C40.0236 14.7867 39.9836 14.6733 39.9836 14.54V13.68C39.8103 13.92 39.5769 14.16 39.2836 14.4C38.9903 14.6267 38.6236 14.82 38.1836 14.98C37.7436 15.1267 37.2036 15.2 36.5636 15.2ZM36.9836 13.7C37.5303 13.7 38.0303 13.5867 38.4836 13.36C38.9369 13.12 39.2903 12.7533 39.5436 12.26C39.8103 11.7667 39.9436 11.1467 39.9436 10.4V9.84L37.6236 10.18C36.6769 10.3133 35.9636 10.54 35.4836 10.86C35.0036 11.1667 34.7636 11.56 34.7636 12.04C34.7636 12.4133 34.8703 12.7267 35.0836 12.98C35.3103 13.22 35.5903 13.4 35.9236 13.52C36.2703 13.64 36.6236 13.7 36.9836 13.7Z" fill="#0C1012"/>
<path d="M54.7411 15.2C53.9411 15.2 53.2744 15.06 52.7411 14.78C52.2078 14.4867 51.7811 14.1267 51.4611 13.7V14.54C51.4611 14.6733 51.4144 14.7867 51.3211 14.88C51.2411 14.96 51.1344 15 51.0011 15H50.0811C49.9478 15 49.8344 14.96 49.7411 14.88C49.6611 14.7867 49.6211 14.6733 49.6211 14.54V1.26C49.6211 1.12667 49.6611 1.02 49.7411 0.940004C49.8344 0.84667 49.9478 0.800003 50.0811 0.800003H51.0411C51.1878 0.800003 51.3011 0.84667 51.3811 0.940004C51.4611 1.02 51.5011 1.12667 51.5011 1.26V5.86C51.8344 5.44667 52.2611 5.1 52.7811 4.82C53.3144 4.54 53.9678 4.4 54.7411 4.4C55.4878 4.4 56.1211 4.53334 56.6411 4.8C57.1744 5.05334 57.6078 5.40667 57.9411 5.86C58.2878 6.31334 58.5478 6.82667 58.7211 7.4C58.8944 7.97334 58.9878 8.57334 59.0011 9.2C59.0144 9.41334 59.0211 9.61334 59.0211 9.8C59.0211 9.98667 59.0144 10.1867 59.0011 10.4C58.9878 11.04 58.8944 11.6467 58.7211 12.22C58.5478 12.7933 58.2878 13.3067 57.9411 13.76C57.6078 14.2 57.1744 14.5533 56.6411 14.82C56.1211 15.0733 55.4878 15.2 54.7411 15.2ZM54.3211 13.58C55.0144 13.58 55.5544 13.4333 55.9411 13.14C56.3411 12.8333 56.6278 12.44 56.8011 11.96C56.9744 11.4667 57.0744 10.94 57.1011 10.38C57.1144 9.99334 57.1144 9.60667 57.1011 9.22C57.0744 8.66 56.9744 8.14 56.8011 7.66C56.6278 7.16667 56.3411 6.77334 55.9411 6.48C55.5544 6.17334 55.0144 6.02 54.3211 6.02C53.6944 6.02 53.1744 6.16667 52.7611 6.46C52.3478 6.75334 52.0344 7.12667 51.8211 7.58C51.6211 8.03334 51.5144 8.49334 51.5011 8.96C51.4878 9.17334 51.4811 9.43334 51.4811 9.74C51.4811 10.0333 51.4878 10.2867 51.5011 10.5C51.5278 10.9933 51.6344 11.48 51.8211 11.96C52.0211 12.4267 52.3211 12.8133 52.7211 13.12C53.1344 13.4267 53.6678 13.58 54.3211 13.58Z" fill="#0C1012"/>
<path d="M61.9556 15C61.8223 15 61.709 14.96 61.6156 14.88C61.5356 14.7867 61.4956 14.6733 61.4956 14.54V5.08C61.4956 4.94667 61.5356 4.83334 61.6156 4.74C61.709 4.64667 61.8223 4.6 61.9556 4.6H62.8756C63.009 4.6 63.1223 4.64667 63.2156 4.74C63.309 4.83334 63.3556 4.94667 63.3556 5.08V5.96C63.6223 5.50667 63.989 5.16667 64.4556 4.94C64.9223 4.71334 65.4823 4.6 66.1356 4.6H66.9356C67.069 4.6 67.1756 4.64667 67.2556 4.74C67.3356 4.82 67.3756 4.92667 67.3756 5.06V5.88C67.3756 6.01334 67.3356 6.12 67.2556 6.2C67.1756 6.28 67.069 6.32 66.9356 6.32H65.7356C65.0156 6.32 64.449 6.53334 64.0356 6.96C63.6223 7.37334 63.4156 7.94 63.4156 8.66V14.54C63.4156 14.6733 63.369 14.7867 63.2756 14.88C63.1823 14.96 63.069 15 62.9356 15H61.9556Z" fill="#0C1012"/>
<path d="M71.837 15.2C71.1704 15.2 70.5637 15.0667 70.017 14.8C69.4704 14.5333 69.0304 14.1733 68.697 13.72C68.3637 13.2667 68.197 12.7533 68.197 12.18C68.197 11.26 68.5704 10.5267 69.317 9.98C70.0637 9.43334 71.037 9.07334 72.237 8.9L75.217 8.48V7.9C75.217 7.26 75.0304 6.76 74.657 6.4C74.297 6.04 73.7037 5.86 72.877 5.86C72.277 5.86 71.7904 5.98 71.417 6.22C71.057 6.46 70.8037 6.76667 70.657 7.14C70.577 7.34 70.437 7.44 70.237 7.44H69.337C69.1904 7.44 69.077 7.4 68.997 7.32C68.9304 7.22667 68.897 7.12 68.897 7C68.897 6.8 68.9704 6.55334 69.117 6.26C69.277 5.96667 69.517 5.68 69.837 5.4C70.157 5.12 70.5637 4.88667 71.057 4.7C71.5637 4.5 72.177 4.4 72.897 4.4C73.697 4.4 74.3704 4.50667 74.917 4.72C75.4637 4.92 75.8904 5.19334 76.197 5.54C76.517 5.88667 76.7437 6.28 76.877 6.72C77.0237 7.16 77.097 7.60667 77.097 8.06V14.54C77.097 14.6733 77.0504 14.7867 76.957 14.88C76.877 14.96 76.7704 15 76.637 15H75.717C75.5704 15 75.457 14.96 75.377 14.88C75.297 14.7867 75.257 14.6733 75.257 14.54V13.68C75.0837 13.92 74.8504 14.16 74.557 14.4C74.2637 14.6267 73.897 14.82 73.457 14.98C73.017 15.1267 72.477 15.2 71.837 15.2ZM72.257 13.7C72.8037 13.7 73.3037 13.5867 73.757 13.36C74.2104 13.12 74.5637 12.7533 74.817 12.26C75.0837 11.7667 75.217 11.1467 75.217 10.4V9.84L72.897 10.18C71.9504 10.3133 71.237 10.54 70.757 10.86C70.277 11.1667 70.037 11.56 70.037 12.04C70.037 12.4133 70.1437 12.7267 70.357 12.98C70.5837 13.22 70.8637 13.4 71.197 13.52C71.5437 13.64 71.897 13.7 72.257 13.7Z" fill="#0C1012"/>
<path d="M79.7722 15C79.6389 15 79.5255 14.96 79.4322 14.88C79.3522 14.7867 79.3122 14.6733 79.3122 14.54V13.84C79.3122 13.72 79.3389 13.6067 79.3922 13.5C79.4589 13.3933 79.5255 13.2933 79.5922 13.2L85.1122 6.18H79.9522C79.8189 6.18 79.7055 6.14 79.6122 6.06C79.5322 5.98 79.4922 5.86667 79.4922 5.72V5.06C79.4922 4.92667 79.5322 4.82 79.6122 4.74C79.7055 4.64667 79.8189 4.6 79.9522 4.6H87.0722C87.2055 4.6 87.3122 4.64667 87.3922 4.74C87.4855 4.82 87.5322 4.92667 87.5322 5.06V5.8C87.5322 5.92 87.4989 6.02667 87.4322 6.12C87.3789 6.21334 87.3189 6.31334 87.2522 6.42L81.7922 13.42H87.4722C87.6055 13.42 87.7122 13.46 87.7922 13.54C87.8855 13.62 87.9322 13.7333 87.9322 13.88V14.54C87.9322 14.6733 87.8855 14.7867 87.7922 14.88C87.7122 14.96 87.6055 15 87.4722 15H79.7722Z" fill="#0C1012"/>
</svg>
