<svg width="40" height="40" viewBox="0 0 40 40" fill="none" xmlns="http://www.w3.org/2000/svg">
<path d="M7.5 12.5C6.17392 12.5 4.90215 13.0268 3.96447 13.9645C3.02678 14.9021 2.5 16.1739 2.5 17.5V18.75H1.25C0.918479 18.75 0.600537 18.8817 0.366117 19.1161C0.131696 19.3505 0 19.6685 0 20C0 20.3315 0.131696 20.6495 0.366117 20.8839C0.600537 21.1183 0.918479 21.25 1.25 21.25H2.5V22.5C2.5 23.8261 3.02678 25.0979 3.96447 26.0355C4.90215 26.9732 6.17392 27.5 7.5 27.5H10C11.9891 27.5 13.8968 26.7098 15.3033 25.3033C16.7098 23.8968 17.5 21.9891 17.5 20C17.5 19.337 17.7634 18.7011 18.2322 18.2322C18.7011 17.7634 19.337 17.5 20 17.5C20.663 17.5 21.2989 17.7634 21.7678 18.2322C22.2366 18.7011 22.5 19.337 22.5 20C22.5 21.9891 23.2902 23.8968 24.6967 25.3033C26.1032 26.7098 28.0109 27.5 30 27.5H32.5C33.8261 27.5 35.0979 26.9732 36.0355 26.0355C36.9732 25.0979 37.5 23.8261 37.5 22.5V21.25H38.75C39.0815 21.25 39.3995 21.1183 39.6339 20.8839C39.8683 20.6495 40 20.3315 40 20C40 19.6685 39.8683 19.3505 39.6339 19.1161C39.3995 18.8817 39.0815 18.75 38.75 18.75H37.5V17.5C37.5 16.1739 36.9732 14.9021 36.0355 13.9645C35.0979 13.0268 33.8261 12.5 32.5 12.5H27.5C26.4636 12.4996 25.4527 12.8213 24.6071 13.4206C23.7615 14.0198 23.123 14.867 22.78 15.845C21.9581 15.293 20.9901 14.9988 20 15C19.0099 14.9988 18.0419 15.293 17.22 15.845C16.877 14.867 16.2385 14.0198 15.3929 13.4206C14.5473 12.8213 13.5364 12.4996 12.5 12.5H7.5ZM4.5 16.5L10 15C10.5 15 10.66 15 10 15L4.5 16.5C3.53293 16.9837 3.98373 16.5329 3.5 17.5L4.22439 19.85C3.92939 20.44 5 20.5125 5 19.85V17.5C5 16.837 5.26339 16.2011 5.73223 15.7322C6.20107 15.2634 3.83696 16.5 4.5 16.5Z" fill="#141C1C"/>
<path d="M4 9L17 12" stroke="#141C1C" stroke-width="2"/>
<path d="M36 9L23 12" stroke="#141C1C" stroke-width="2"/>
</svg>
