<svg width="165" height="33" viewBox="0 0 165 33" fill="none" xmlns="http://www.w3.org/2000/svg">
<path d="M6.41156 27.3407H20.8762L19.0508 32.4242H0V0.457968H6.41156V27.3407Z" fill="white"/>
<path d="M40.6211 26.3332H27.8896L25.7829 32.4242H19.0508L30.5458 0.412169H38.0107L49.5057 32.4242H42.7277L40.6211 26.3332ZM38.8808 21.2039L34.2553 7.83126L29.6298 21.2039H38.8808Z" fill="white"/>
<path d="M64.9768 0.457968C68.3352 0.457968 71.2815 1.11439 73.8156 2.42723C76.3802 3.74007 78.3494 5.61774 79.7233 8.06024C81.1278 10.4722 81.83 13.2811 81.83 16.4869C81.83 19.6926 81.1278 22.5015 79.7233 24.9135C78.3494 27.2949 76.3802 29.1421 73.8156 30.4549C71.2815 31.7677 68.3352 32.4242 64.9768 32.4242H53.8023V0.457968H64.9768ZM64.7478 26.9743C68.1062 26.9743 70.7014 26.0584 72.5332 24.2265C74.3651 22.3947 75.2811 19.8148 75.2811 16.4869C75.2811 13.159 74.3651 10.5638 72.5332 8.7014C70.7014 6.80846 68.1062 5.86199 64.7478 5.86199H60.2139V26.9743H64.7478Z" fill="white"/>
<path d="M93.0409 8.7014V32.4242H86.6294V0.412169L93.0409 8.7014Z" fill="white"/>
<path d="M126.716 32.4242H120.305L105.787 10.4875V24.9135L99.3756 32.4242V0.412169H105.787L120.305 22.3947V10.4875L126.716 0.412169V32.4242Z" fill="white"/>
<path d="M147.891 32.7447C144.898 32.7447 142.151 32.0425 139.647 30.6381C137.144 29.2337 135.159 27.2949 133.693 24.8219C132.228 22.3183 131.495 19.4942 131.495 16.3495C131.495 13.2353 132.228 10.4417 133.693 7.96865C135.159 5.46509 137.144 3.51109 139.647 2.10665C142.151 0.702218 144.898 0 147.891 0C150.913 0 153.661 0.702218 156.134 2.10665C158.638 3.51109 160.607 5.46509 162.042 7.96865C163.507 10.4417 164.24 13.2353 164.24 16.3495C164.24 19.4942 163.507 22.3183 162.042 24.8219C160.607 27.2949 158.638 29.2337 156.134 30.6381C153.63 32.0425 150.883 32.7447 147.891 32.7447ZM147.891 27.0201C149.814 27.0201 151.508 26.5927 152.974 25.7378C154.439 24.8524 155.584 23.6006 156.409 21.9825C157.233 20.3643 157.645 18.4867 157.645 16.3495C157.645 14.2123 157.233 12.3499 156.409 10.7623C155.584 9.1441 154.439 7.90759 152.974 7.05271C151.508 6.19784 149.814 5.7704 147.891 5.7704C145.967 5.7704 144.257 6.19784 142.761 7.05271C141.296 7.90759 140.151 9.1441 139.327 10.7623C138.502 12.3499 138.09 14.2123 138.09 16.3495C138.09 18.4867 138.502 20.3643 139.327 21.9825C140.151 23.6006 141.296 24.8524 142.761 25.7378C144.257 26.5927 145.967 27.0201 147.891 27.0201Z" fill="white"/>
</svg>
