<svg width="32" height="32" viewBox="0 0 32 32" fill="none" xmlns="http://www.w3.org/2000/svg">
<g clip-path="url(#clip0_108_42)">
<path d="M0 2.29188C0 1.02588 1.052 -0.00012207 2.35 -0.00012207H29.65C30.948 -0.00012207 32 1.02588 32 2.29188V29.7079C32 30.9739 30.948 31.9999 29.65 31.9999H2.35C1.052 31.9999 0 30.9739 0 29.7079V2.29188ZM9.886 26.7879V12.3379H5.084V26.7879H9.886ZM7.486 10.3639C9.16 10.3639 10.202 9.25588 10.202 7.86788C10.172 6.44988 9.162 5.37188 7.518 5.37188C5.874 5.37188 4.8 6.45188 4.8 7.86788C4.8 9.25588 5.842 10.3639 7.454 10.3639H7.486ZM17.302 26.7879V18.7179C17.302 18.2859 17.334 17.8539 17.462 17.5459C17.808 16.6839 18.598 15.7899 19.926 15.7899C21.664 15.7899 22.358 17.1139 22.358 19.0579V26.7879H27.16V18.4999C27.16 14.0599 24.792 11.9959 21.632 11.9959C19.084 11.9959 17.942 13.3959 17.302 14.3819V14.4319H17.27C17.2806 14.4152 17.2913 14.3985 17.302 14.3819V12.3379H12.502C12.562 13.6939 12.502 26.7879 12.502 26.7879H17.302Z" fill="url(#paint0_linear_108_42)"/>
</g>
<defs>
<linearGradient id="paint0_linear_108_42" x1="16" y1="-0.00012207" x2="16" y2="31.9999" gradientUnits="userSpaceOnUse">
<stop stop-color="#0E7AF8"/>
<stop offset="0.9999" stop-color="#0450A8"/>
</linearGradient>
<clipPath id="clip0_108_42">
<rect width="32" height="32" fill="white"/>
</clipPath>
</defs>
</svg>
