<svg width="65" height="65" viewBox="0 0 65 65" fill="none" xmlns="http://www.w3.org/2000/svg">
<path d="M32.5 49.3238C50.4493 49.3238 65 41.7495 65 32.4061C65 23.0626 50.4493 15.4883 32.5 15.4883C14.5507 15.4883 0 23.0626 0 32.4061C0 41.7495 14.5507 49.3238 32.5 49.3238Z" fill="url(#paint0_linear_106_32)"/>
<path fill-rule="evenodd" clip-rule="evenodd" d="M9.12671 42.4231L12.6885 24.3922H20.9245C24.486 24.6149 26.2669 26.3956 26.2669 29.5123C26.2669 34.8547 22.0376 37.9712 18.2531 37.7485H14.2467L13.3563 42.4231H9.12671ZM15.1369 34.4096L16.25 27.7314H19.1438C20.702 27.7314 21.8149 28.3991 21.8149 29.7347C21.5925 33.5192 19.8116 34.1869 17.8083 34.4096H15.1372H15.1369ZM25.4394 37.7485L29.001 19.7178H33.2305L32.3401 24.3922H36.3467C39.9085 24.6149 41.2441 26.3956 40.799 28.6218L39.2408 37.7485H34.7888L36.347 29.5123C36.5694 28.3991 36.5694 27.7314 35.0114 27.7314H31.6723L29.669 37.7485H25.4394ZM38.9556 42.4231L42.5172 24.3922H50.7534C54.3152 24.6149 56.0961 26.3956 56.0961 29.5123C56.0961 34.8547 51.8665 37.9712 48.0823 37.7485H44.0754L43.1849 42.4231H38.9556ZM44.9656 34.4096L46.0787 27.7314H48.9727C50.5309 27.7314 51.6438 28.3991 51.6438 29.7347C51.4214 33.5192 49.6405 34.1869 47.6372 34.4096H44.9658H44.9656Z" fill="#070707"/>
<defs>
<linearGradient id="paint0_linear_106_32" x1="32.5" y1="15.4883" x2="32.5" y2="49.3238" gradientUnits="userSpaceOnUse">
<stop stop-color="#0E7AF8"/>
<stop offset="0.9999" stop-color="#0450A8"/>
</linearGradient>
</defs>
</svg>
