<svg width="19" height="140" viewBox="0 0 19 140" fill="none" xmlns="http://www.w3.org/2000/svg">
<path d="M15 138.8C15 138.947 14.96 139.06 14.88 139.14C14.7867 139.22 14.6733 139.26 14.54 139.26H1.48C1.33333 139.26 1.22 139.22 1.14 139.14C1.04667 139.06 0.999999 138.947 0.999999 138.8V133.92C0.999999 132.413 1.35333 131.22 2.06 130.34C2.76667 129.46 3.81333 129.02 5.2 129.02C6.22667 129.02 7.06667 129.28 7.72 129.8C8.36 130.307 8.80667 131 9.06 131.88L14.38 128.8C14.46 128.76 14.5333 128.74 14.6 128.74C14.7067 128.74 14.8 128.787 14.88 128.88C14.96 128.96 15 129.053 15 129.16V130.12C15 130.347 14.94 130.513 14.82 130.62C14.7 130.727 14.58 130.82 14.46 130.9L9.38 133.8V137.3H14.54C14.6733 137.3 14.7867 137.347 14.88 137.44C14.96 137.52 15 137.633 15 137.78V138.8ZM7.68 137.3V134C7.68 133 7.47333 132.253 7.06 131.76C6.63333 131.267 6.00667 131.02 5.18 131.02C4.36667 131.02 3.74667 131.267 3.32 131.76C2.89333 132.24 2.68 132.987 2.68 134V137.3H7.68ZM15.2 122.272C15.2 123.285 15.0067 124.132 14.62 124.812C14.2333 125.492 13.7 126.012 13.02 126.372C12.3267 126.732 11.54 126.932 10.66 126.972C10.4333 126.985 10.1467 126.992 9.8 126.992C9.44 126.992 9.15333 126.985 8.94 126.972C8.04667 126.932 7.26 126.732 6.58 126.372C5.9 125.998 5.36667 125.472 4.98 124.792C4.59333 124.112 4.4 123.272 4.4 122.272C4.4 121.272 4.59333 120.432 4.98 119.752C5.36667 119.072 5.9 118.552 6.58 118.192C7.26 117.818 8.04667 117.612 8.94 117.572C9.15333 117.558 9.44 117.552 9.8 117.552C10.1467 117.552 10.4333 117.558 10.66 117.572C11.54 117.612 12.3267 117.812 13.02 118.172C13.7 118.532 14.2333 119.052 14.62 119.732C15.0067 120.412 15.2 121.258 15.2 122.272ZM13.66 122.272C13.66 121.445 13.4 120.785 12.88 120.292C12.3467 119.798 11.5733 119.532 10.56 119.492C10.36 119.478 10.1067 119.472 9.8 119.472C9.49333 119.472 9.24 119.478 9.04 119.492C8.02667 119.532 7.26 119.798 6.74 120.292C6.20667 120.785 5.94 121.445 5.94 122.272C5.94 123.098 6.20667 123.765 6.74 124.272C7.26 124.765 8.02667 125.025 9.04 125.052C9.24 125.065 9.49333 125.072 9.8 125.072C10.1067 125.072 10.36 125.065 10.56 125.052C11.5733 125.025 12.3467 124.765 12.88 124.272C13.4 123.765 13.66 123.098 13.66 122.272ZM15 114.567C15 114.701 14.96 114.814 14.88 114.907C14.7867 114.987 14.6733 115.027 14.54 115.027H1.26C1.12667 115.027 1.02 114.987 0.94 114.907C0.846666 114.814 0.799999 114.701 0.799999 114.567V113.627C0.799999 113.481 0.846666 113.367 0.94 113.287C1.02 113.207 1.12667 113.167 1.26 113.167H14.54C14.6733 113.167 14.7867 113.207 14.88 113.287C14.96 113.367 15 113.481 15 113.627V114.567ZM15.2 106.044C15.2 107.417 14.78 108.511 13.94 109.324C13.0867 110.137 11.9267 110.584 10.46 110.664C10.2867 110.677 10.0667 110.684 9.8 110.684C9.52 110.684 9.29333 110.677 9.12 110.664C8.17333 110.611 7.34667 110.391 6.64 110.004C5.92 109.617 5.36667 109.091 4.98 108.424C4.59333 107.744 4.4 106.951 4.4 106.044C4.4 105.031 4.61333 104.184 5.04 103.504C5.46667 102.811 6.07333 102.284 6.86 101.924C7.64667 101.564 8.56667 101.384 9.62 101.384H9.96C10.1067 101.384 10.22 101.431 10.3 101.524C10.38 101.604 10.42 101.711 10.42 101.844V108.764C10.4333 108.764 10.46 108.764 10.5 108.764C10.54 108.764 10.5733 108.764 10.6 108.764C11.1467 108.737 11.66 108.617 12.14 108.404C12.6067 108.191 12.9867 107.884 13.28 107.484C13.5733 107.084 13.72 106.604 13.72 106.044C13.72 105.564 13.6467 105.164 13.5 104.844C13.3533 104.524 13.1933 104.264 13.02 104.064C12.8333 103.864 12.6933 103.731 12.6 103.664C12.4267 103.544 12.3267 103.451 12.3 103.384C12.26 103.317 12.24 103.211 12.24 103.064V102.104C12.24 101.971 12.28 101.864 12.36 101.784C12.4267 101.691 12.5267 101.651 12.66 101.664C12.86 101.677 13.1067 101.784 13.4 101.984C13.68 102.184 13.96 102.471 14.24 102.844C14.52 103.217 14.7533 103.671 14.94 104.204C15.1133 104.737 15.2 105.351 15.2 106.044ZM9.04 108.764V103.284H8.98C8.38 103.284 7.84667 103.397 7.38 103.624C6.91333 103.837 6.54667 104.151 6.28 104.564C6 104.977 5.86 105.471 5.86 106.044C5.86 106.617 6 107.111 6.28 107.524C6.54667 107.924 6.91333 108.231 7.38 108.444C7.84667 108.657 8.38 108.764 8.98 108.764H9.04ZM18.8 93.6103C18.8 93.7436 18.7533 93.857 18.66 93.9503C18.58 94.0303 18.4733 94.0703 18.34 94.0703H5.06C4.92667 94.0703 4.82 94.0303 4.74 93.9503C4.64667 93.857 4.6 93.7436 4.6 93.6103V92.6903C4.6 92.557 4.64667 92.4503 4.74 92.3703C4.82 92.277 4.92667 92.2303 5.06 92.2303H5.94C5.5 91.9103 5.13333 91.4836 4.84 90.9503C4.54667 90.417 4.4 89.7503 4.4 88.9503C4.4 88.2036 4.52667 87.5703 4.78 87.0503C5.03333 86.517 5.38 86.0836 5.82 85.7503C6.26 85.4036 6.76 85.1436 7.32 84.9703C7.88 84.797 8.48 84.7036 9.12 84.6903C9.33333 84.677 9.56 84.6703 9.8 84.6703C10.04 84.6703 10.2667 84.677 10.48 84.6903C11.1067 84.7036 11.7067 84.797 12.28 84.9703C12.84 85.1436 13.34 85.4036 13.78 85.7503C14.2067 86.0836 14.5533 86.517 14.82 87.0503C15.0733 87.5703 15.2 88.2036 15.2 88.9503C15.2 89.7236 15.06 90.377 14.78 90.9103C14.4867 91.4303 14.1267 91.857 13.7 92.1903H18.34C18.4733 92.1903 18.58 92.2303 18.66 92.3103C18.7533 92.3903 18.8 92.5036 18.8 92.6503V93.6103ZM13.58 89.3703C13.58 88.677 13.4333 88.137 13.14 87.7503C12.8333 87.3503 12.44 87.0636 11.96 86.8903C11.4667 86.717 10.94 86.617 10.38 86.5903C9.99333 86.577 9.60667 86.577 9.22 86.5903C8.66 86.617 8.14 86.717 7.66 86.8903C7.16667 87.0636 6.77333 87.3503 6.48 87.7503C6.17333 88.137 6.02 88.677 6.02 89.3703C6.02 90.0236 6.17333 90.557 6.48 90.9703C6.78667 91.3703 7.18 91.6703 7.66 91.8703C8.12667 92.057 8.60667 92.1636 9.1 92.1903C9.31333 92.2036 9.56667 92.2103 9.86 92.2103C10.1533 92.2103 10.4133 92.2036 10.64 92.1903C11.1067 92.177 11.5667 92.0703 12.02 91.8703C12.4733 91.657 12.8467 91.3436 13.14 90.9303C13.4333 90.517 13.58 89.997 13.58 89.3703ZM15.2 79.2762C15.2 79.9429 15.0667 80.5496 14.8 81.0962C14.5333 81.6429 14.1733 82.0829 13.72 82.4162C13.2667 82.7496 12.7533 82.9162 12.18 82.9162C11.26 82.9162 10.5267 82.5429 9.98 81.7962C9.43333 81.0496 9.07333 80.0762 8.9 78.8762L8.48 75.8962H7.9C7.26 75.8962 6.76 76.0829 6.4 76.4562C6.04 76.8162 5.86 77.4096 5.86 78.2362C5.86 78.8362 5.98 79.3229 6.22 79.6962C6.46 80.0562 6.76667 80.3096 7.14 80.4562C7.34 80.5362 7.44 80.6762 7.44 80.8762V81.7762C7.44 81.9229 7.4 82.0362 7.32 82.1162C7.22667 82.1829 7.12 82.2162 7 82.2162C6.8 82.2162 6.55333 82.1429 6.26 81.9962C5.96667 81.8362 5.68 81.5962 5.4 81.2762C5.12 80.9562 4.88667 80.5496 4.7 80.0562C4.5 79.5496 4.4 78.9362 4.4 78.2162C4.4 77.4162 4.50667 76.7429 4.72 76.1962C4.92 75.6496 5.19333 75.2229 5.54 74.9162C5.88667 74.5962 6.28 74.3696 6.72 74.2362C7.16 74.0896 7.60667 74.0162 8.06 74.0162H14.54C14.6733 74.0162 14.7867 74.0629 14.88 74.1562C14.96 74.2362 15 74.3429 15 74.4762V75.3962C15 75.5429 14.96 75.6562 14.88 75.7362C14.7867 75.8162 14.6733 75.8562 14.54 75.8562H13.68C13.92 76.0296 14.16 76.2629 14.4 76.5562C14.6267 76.8496 14.82 77.2162 14.98 77.6562C15.1267 78.0962 15.2 78.6362 15.2 79.2762ZM13.7 78.8562C13.7 78.3096 13.5867 77.8096 13.36 77.3562C13.12 76.9029 12.7533 76.5496 12.26 76.2962C11.7667 76.0296 11.1467 75.8962 10.4 75.8962H9.84L10.18 78.2162C10.3133 79.1629 10.54 79.8762 10.86 80.3562C11.1667 80.8362 11.56 81.0762 12.04 81.0762C12.4133 81.0762 12.7267 80.9696 12.98 80.7562C13.22 80.5296 13.4 80.2496 13.52 79.9162C13.64 79.5696 13.7 79.2162 13.7 78.8562ZM15 70.6811C15 70.8144 14.96 70.9278 14.88 71.0211C14.7867 71.1011 14.6733 71.1411 14.54 71.1411H5.08C4.94667 71.1411 4.83333 71.1011 4.74 71.0211C4.64667 70.9278 4.6 70.8144 4.6 70.6811V69.7611C4.6 69.6278 4.64667 69.5144 4.74 69.4211C4.83333 69.3278 4.94667 69.2811 5.08 69.2811H5.96C5.50667 69.0144 5.16667 68.6478 4.94 68.1811C4.71333 67.7144 4.6 67.1544 4.6 66.5011V65.7011C4.6 65.5678 4.64667 65.4611 4.74 65.3811C4.82 65.3011 4.92667 65.2611 5.06 65.2611H5.88C6.01333 65.2611 6.12 65.3011 6.2 65.3811C6.28 65.4611 6.32 65.5678 6.32 65.7011V66.9011C6.32 67.6211 6.53333 68.1878 6.96 68.6011C7.37333 69.0144 7.94 69.2211 8.66 69.2211H14.54C14.6733 69.2211 14.7867 69.2678 14.88 69.3611C14.96 69.4544 15 69.5678 15 69.7011V70.6811ZM15.2 60.7997C15.2 61.4664 15.0667 62.073 14.8 62.6197C14.5333 63.1664 14.1733 63.6064 13.72 63.9397C13.2667 64.273 12.7533 64.4397 12.18 64.4397C11.26 64.4397 10.5267 64.0664 9.98 63.3197C9.43333 62.573 9.07333 61.5997 8.9 60.3997L8.48 57.4197H7.9C7.26 57.4197 6.76 57.6064 6.4 57.9797C6.04 58.3397 5.86 58.933 5.86 59.7597C5.86 60.3597 5.98 60.8464 6.22 61.2197C6.46 61.5797 6.76667 61.833 7.14 61.9797C7.34 62.0597 7.44 62.1997 7.44 62.3997V63.2997C7.44 63.4464 7.4 63.5597 7.32 63.6397C7.22667 63.7064 7.12 63.7397 7 63.7397C6.8 63.7397 6.55333 63.6664 6.26 63.5197C5.96667 63.3597 5.68 63.1197 5.4 62.7997C5.12 62.4797 4.88667 62.073 4.7 61.5797C4.5 61.073 4.4 60.4597 4.4 59.7397C4.4 58.9397 4.50667 58.2664 4.72 57.7197C4.92 57.173 5.19333 56.7464 5.54 56.4397C5.88667 56.1197 6.28 55.893 6.72 55.7597C7.16 55.613 7.60667 55.5397 8.06 55.5397H14.54C14.6733 55.5397 14.7867 55.5864 14.88 55.6797C14.96 55.7597 15 55.8664 15 55.9997V56.9197C15 57.0664 14.96 57.1797 14.88 57.2597C14.7867 57.3397 14.6733 57.3797 14.54 57.3797H13.68C13.92 57.553 14.16 57.7864 14.4 58.0797C14.6267 58.373 14.82 58.7397 14.98 59.1797C15.1267 59.6197 15.2 60.1597 15.2 60.7997ZM13.7 60.3797C13.7 59.833 13.5867 59.333 13.36 58.8797C13.12 58.4264 12.7533 58.073 12.26 57.8197C11.7667 57.553 11.1467 57.4197 10.4 57.4197H9.84L10.18 59.7397C10.3133 60.6864 10.54 61.3997 10.86 61.8797C11.1667 62.3597 11.56 62.5997 12.04 62.5997C12.4133 62.5997 12.7267 62.493 12.98 62.2797C13.22 62.053 13.4 61.773 13.52 61.4397C13.64 61.093 13.7 60.7397 13.7 60.3797ZM15.2 42.6222C15.2 43.4222 15.06 44.0889 14.78 44.6222C14.4867 45.1555 14.1267 45.5822 13.7 45.9022H14.54C14.6733 45.9022 14.7867 45.9489 14.88 46.0422C14.96 46.1222 15 46.2289 15 46.3622V47.2822C15 47.4155 14.96 47.5289 14.88 47.6222C14.7867 47.7022 14.6733 47.7422 14.54 47.7422H1.26C1.12667 47.7422 1.02 47.7022 0.94 47.6222C0.846666 47.5289 0.799999 47.4155 0.799999 47.2822L0.799999 46.3222C0.799999 46.1755 0.846666 46.0622 0.94 45.9822C1.02 45.9022 1.12667 45.8622 1.26 45.8622H5.86C5.44667 45.5289 5.1 45.1022 4.82 44.5822C4.54 44.0489 4.4 43.3955 4.4 42.6222C4.4 41.8755 4.53333 41.2422 4.8 40.7222C5.05333 40.1889 5.40667 39.7555 5.86 39.4222C6.31333 39.0755 6.82667 38.8155 7.4 38.6422C7.97333 38.4689 8.57333 38.3755 9.2 38.3622C9.41333 38.3489 9.61333 38.3422 9.8 38.3422C9.98667 38.3422 10.1867 38.3489 10.4 38.3622C11.04 38.3755 11.6467 38.4689 12.22 38.6422C12.7933 38.8155 13.3067 39.0755 13.76 39.4222C14.2 39.7555 14.5533 40.1889 14.82 40.7222C15.0733 41.2422 15.2 41.8755 15.2 42.6222ZM13.58 43.0422C13.58 42.3489 13.4333 41.8089 13.14 41.4222C12.8333 41.0222 12.44 40.7355 11.96 40.5622C11.4667 40.3889 10.94 40.2889 10.38 40.2622C9.99333 40.2489 9.60667 40.2489 9.22 40.2622C8.66 40.2889 8.14 40.3889 7.66 40.5622C7.16667 40.7355 6.77333 41.0222 6.48 41.4222C6.17333 41.8089 6.02 42.3489 6.02 43.0422C6.02 43.6689 6.16667 44.1889 6.46 44.6022C6.75333 45.0155 7.12667 45.3289 7.58 45.5422C8.03333 45.7422 8.49333 45.8489 8.96 45.8622C9.17333 45.8755 9.43333 45.8822 9.74 45.8822C10.0333 45.8822 10.2867 45.8755 10.5 45.8622C10.9933 45.8355 11.48 45.7289 11.96 45.5422C12.4267 45.3422 12.8133 45.0422 13.12 44.6422C13.4267 44.2289 13.58 43.6955 13.58 43.0422ZM15.2 32.9677C15.2 33.6343 15.0667 34.241 14.8 34.7877C14.5333 35.3343 14.1733 35.7743 13.72 36.1077C13.2667 36.441 12.7533 36.6077 12.18 36.6077C11.26 36.6077 10.5267 36.2343 9.98 35.4877C9.43333 34.741 9.07333 33.7677 8.9 32.5677L8.48 29.5877H7.9C7.26 29.5877 6.76 29.7743 6.4 30.1477C6.04 30.5077 5.86 31.101 5.86 31.9277C5.86 32.5277 5.98 33.0143 6.22 33.3877C6.46 33.7477 6.76667 34.001 7.14 34.1477C7.34 34.2277 7.44 34.3677 7.44 34.5677V35.4677C7.44 35.6143 7.4 35.7277 7.32 35.8077C7.22667 35.8743 7.12 35.9077 7 35.9077C6.8 35.9077 6.55333 35.8343 6.26 35.6877C5.96667 35.5277 5.68 35.2877 5.4 34.9677C5.12 34.6477 4.88667 34.241 4.7 33.7477C4.5 33.241 4.4 32.6277 4.4 31.9077C4.4 31.1077 4.50667 30.4343 4.72 29.8877C4.92 29.341 5.19333 28.9143 5.54 28.6077C5.88667 28.2877 6.28 28.061 6.72 27.9277C7.16 27.781 7.60667 27.7077 8.06 27.7077H14.54C14.6733 27.7077 14.7867 27.7543 14.88 27.8477C14.96 27.9277 15 28.0343 15 28.1677V29.0877C15 29.2343 14.96 29.3477 14.88 29.4277C14.7867 29.5077 14.6733 29.5477 14.54 29.5477H13.68C13.92 29.721 14.16 29.9543 14.4 30.2477C14.6267 30.541 14.82 30.9077 14.98 31.3477C15.1267 31.7877 15.2 32.3277 15.2 32.9677ZM13.7 32.5477C13.7 32.001 13.5867 31.501 13.36 31.0477C13.12 30.5943 12.7533 30.241 12.26 29.9877C11.7667 29.721 11.1467 29.5877 10.4 29.5877H9.84L10.18 31.9077C10.3133 32.8543 10.54 33.5677 10.86 34.0477C11.1667 34.5277 11.56 34.7677 12.04 34.7677C12.4133 34.7677 12.7267 34.661 12.98 34.4477C13.22 34.221 13.4 33.941 13.52 33.6077C13.64 33.261 13.7 32.9077 13.7 32.5477ZM15 24.3725C15 24.5058 14.96 24.6192 14.88 24.7125C14.7867 24.7925 14.6733 24.8325 14.54 24.8325H5.06C4.92667 24.8325 4.82 24.7925 4.74 24.7125C4.64667 24.6192 4.6 24.5058 4.6 24.3725V23.4125C4.6 23.2792 4.64667 23.1725 4.74 23.0925C4.82 23.0125 4.92667 22.9725 5.06 22.9725H14.54C14.6733 22.9725 14.7867 23.0125 14.88 23.0925C14.96 23.1725 15 23.2792 15 23.4125V24.3725ZM2.66 24.5325C2.66 24.6658 2.62 24.7792 2.54 24.8725C2.44667 24.9525 2.33333 24.9925 2.2 24.9925H1.12C0.986666 24.9925 0.879999 24.9525 0.799999 24.8725C0.706666 24.7792 0.66 24.6658 0.66 24.5325V23.2725C0.66 23.1392 0.706666 23.0325 0.799999 22.9525C0.879999 22.8592 0.986666 22.8125 1.12 22.8125H2.2C2.33333 22.8125 2.44667 22.8592 2.54 22.9525C2.62 23.0325 2.66 23.1392 2.66 23.2725V24.5325ZM15 20.4687C15 20.5754 14.96 20.6754 14.88 20.7687C14.8 20.8487 14.7 20.8887 14.58 20.8887C14.54 20.8887 14.4933 20.8821 14.44 20.8687C14.3733 20.8421 14.3 20.8021 14.22 20.7487L9.68 17.2687L5.38 20.5287C5.3 20.5821 5.23333 20.6221 5.18 20.6487C5.12667 20.6621 5.07333 20.6687 5.02 20.6687C4.9 20.6687 4.8 20.6287 4.72 20.5487C4.64 20.4687 4.6 20.3687 4.6 20.2487V19.2287C4.6 19.0821 4.64 18.9754 4.72 18.9087C4.78667 18.8287 4.85333 18.7621 4.92 18.7087L8.38 16.0487L4.94 13.3887C4.87333 13.3354 4.8 13.2754 4.72 13.2087C4.64 13.1287 4.6 13.0154 4.6 12.8687V11.8887C4.6 11.7687 4.64 11.6687 4.72 11.5887C4.8 11.5087 4.9 11.4688 5.02 11.4688C5.07333 11.4688 5.12667 11.4821 5.18 11.5087C5.23333 11.5221 5.3 11.5554 5.38 11.6087L9.72 14.9087L14.22 11.4287C14.3 11.3754 14.3667 11.3421 14.42 11.3287C14.4733 11.3021 14.5267 11.2887 14.58 11.2887C14.7 11.2887 14.8 11.3287 14.88 11.4087C14.96 11.4887 15 11.5887 15 11.7087V12.7687C15 12.9021 14.9667 13.0087 14.9 13.0887C14.8333 13.1687 14.7667 13.2354 14.7 13.2887L11.04 16.1087L14.7 18.9287C14.7533 18.9821 14.82 19.0487 14.9 19.1287C14.9667 19.1954 15 19.3021 15 19.4487V20.4687ZM15.2 5.22094C15.2 6.23427 15.0067 7.08094 14.62 7.76094C14.2333 8.44094 13.7 8.96094 13.02 9.32094C12.3267 9.68094 11.54 9.88094 10.66 9.92094C10.4333 9.93427 10.1467 9.94094 9.8 9.94094C9.44 9.94094 9.15333 9.93427 8.94 9.92094C8.04667 9.88094 7.26 9.68094 6.58 9.32094C5.9 8.9476 5.36667 8.42094 4.98 7.74094C4.59333 7.06094 4.4 6.22094 4.4 5.22094C4.4 4.22094 4.59333 3.38094 4.98 2.70094C5.36667 2.02094 5.9 1.50094 6.58 1.14094C7.26 0.767603 8.04667 0.560937 8.94 0.520937C9.15333 0.507604 9.44 0.500937 9.8 0.500937C10.1467 0.500937 10.4333 0.507604 10.66 0.520937C11.54 0.560937 12.3267 0.760937 13.02 1.12094C13.7 1.48094 14.2333 2.00094 14.62 2.68094C15.0067 3.36094 15.2 4.2076 15.2 5.22094ZM13.66 5.22094C13.66 4.39427 13.4 3.73427 12.88 3.24094C12.3467 2.7476 11.5733 2.48094 10.56 2.44094C10.36 2.4276 10.1067 2.42094 9.8 2.42094C9.49333 2.42094 9.24 2.4276 9.04 2.44094C8.02667 2.48094 7.26 2.7476 6.74 3.24094C6.20667 3.73427 5.94 4.39427 5.94 5.22094C5.94 6.0476 6.20667 6.71427 6.74 7.22094C7.26 7.71427 8.02667 7.97427 9.04 8.00094C9.24 8.01427 9.49333 8.02094 9.8 8.02094C10.1067 8.02094 10.36 8.01427 10.56 8.00094C11.5733 7.97427 12.3467 7.71427 12.88 7.22094C13.4 6.71427 13.66 6.0476 13.66 5.22094Z" fill="#787C7D"/>
</svg>
