<svg width="430" height="429" viewBox="0 0 430 429" fill="none" xmlns="http://www.w3.org/2000/svg">
<g opacity="0.4">
<path d="M23.987 45L18.734 36H2.974L23.987 72L45 36H29.24L23.987 45Z" fill="#809191"/>
<path d="M29.24 36L23.987 45L18.734 36H11.146L23.987 58L36.828 36H29.24Z" fill="#CCDDDD"/>
</g>
<g opacity="0.4">
<path d="M23.987 45L18.734 36H2.974L23.987 72L45 36H29.24L23.987 45Z" fill="#809191"/>
<path d="M29.24 36L23.987 45L18.734 36H11.146L23.987 58L36.828 36H29.24Z" fill="#CCDDDD"/>
</g>
<g opacity="0.3">
<path d="M42.987 226L37.734 217H21.974L42.987 253L64 217H48.24L42.987 226Z" fill="#809191"/>
<path d="M48.24 217L42.987 226L37.734 217H30.146L42.987 239L55.828 217H48.24Z" fill="#CCDDDD"/>
</g>
<g opacity="0.4">
<path d="M373.987 61L368.734 52H352.974L373.987 88L395 52H379.24L373.987 61Z" fill="#809191"/>
<path d="M379.24 52L373.987 61L368.734 52H361.146L373.987 74L386.828 52H379.24Z" fill="#CCDDDD"/>
</g>
<g opacity="0.4">
<path d="M373.987 61L368.734 52H352.974L373.987 88L395 52H379.24L373.987 61Z" fill="#809191"/>
<path d="M379.24 52L373.987 61L368.734 52H361.146L373.987 74L386.828 52H379.24Z" fill="#CCDDDD"/>
</g>
<g opacity="0.3">
<path d="M392.987 242L387.734 233H371.974L392.987 269L414 233H398.24L392.987 242Z" fill="#809191"/>
<path d="M398.24 233L392.987 242L387.734 233H380.146L392.987 255L405.828 233H398.24Z" fill="#CCDDDD"/>
</g>
<g opacity="0.4">
<path d="M71.5547 134.984C70.775 134.958 69.9589 135.094 69.1406 135.359C67.5041 135.89 65.7892 136.924 64.0293 138.355C63.3396 138.917 62.6436 139.558 61.9453 140.238C61.2624 139.575 60.5807 138.949 59.9062 138.4C58.1478 136.97 56.4375 135.938 54.8047 135.408C53.1719 134.879 51.5472 134.862 50.2129 135.633C48.8786 136.403 48.0806 137.817 47.7227 139.496C47.3647 141.175 47.4022 143.174 47.7617 145.412C47.8866 146.19 48.0667 147.005 48.2695 147.836C47.5071 148.067 46.7667 148.31 46.0801 148.578C44.008 149.387 42.2934 150.356 41.0449 151.508C39.7964 152.66 38.9902 154.058 38.9902 155.594C38.9902 157.129 39.7964 158.526 41.0449 159.678C42.2934 160.83 44.008 161.8 46.0801 162.609C46.8143 162.896 47.6091 163.154 48.4297 163.398C48.1345 164.501 47.8954 165.571 47.7324 166.586C47.3726 168.826 47.3346 170.825 47.6934 172.508C48.0521 174.19 48.8505 175.613 50.1914 176.387C51.5323 177.161 53.1643 177.142 54.8008 176.611C56.4373 176.081 58.1502 175.049 59.9102 173.617C60.5935 173.061 61.2848 172.427 61.9766 171.754C62.6717 172.431 63.3663 173.069 64.0527 173.627C65.8112 175.057 67.5234 176.09 69.1562 176.619C70.7891 177.149 72.4118 177.165 73.7461 176.395C75.0804 175.624 75.8784 174.21 76.2363 172.531C76.5943 170.853 76.5549 168.853 76.1953 166.615C76.0319 165.598 75.7926 164.526 75.4961 163.42C76.3438 163.17 77.1637 162.905 77.9199 162.609C79.992 161.8 81.7066 160.83 82.9551 159.678C84.2036 158.526 85.0098 157.129 85.0098 155.594C85.0098 154.058 84.2036 152.66 82.9551 151.508C81.7066 150.356 79.992 149.387 77.9199 148.578C77.2235 148.306 76.4717 148.06 75.6973 147.826C75.9018 146.99 76.0833 146.169 76.209 145.387C76.5688 143.147 76.6068 141.145 76.248 139.463C75.8893 137.78 75.089 136.36 73.748 135.586C73.0776 135.199 72.3344 135.011 71.5547 134.984ZM71.4629 137.02C71.9522 137.033 72.3695 137.149 72.7266 137.355C73.4406 137.768 73.9684 138.57 74.25 139.891C74.5316 141.211 74.5218 142.995 74.1895 145.064C74.0756 145.773 73.9104 146.524 73.7227 147.293C71.6777 146.801 69.437 146.435 67.0488 146.221C65.8491 144.558 64.616 143.046 63.373 141.703C64.0302 141.062 64.6831 140.462 65.3203 139.943C66.946 138.621 68.4851 137.721 69.7695 137.305C70.4117 137.097 70.9736 137.006 71.4629 137.02ZM52.4863 137.025C52.9784 137.012 53.5415 137.102 54.1855 137.311C55.4737 137.728 57.0155 138.628 58.6426 139.951C59.2669 140.459 59.9055 141.046 60.5488 141.672C59.297 143.026 58.0552 144.554 56.8477 146.23C54.468 146.449 52.2353 146.818 50.1992 147.313C50.0127 146.547 49.8496 145.799 49.7363 145.094C49.4036 143.023 49.3953 141.236 49.6777 139.912C49.9601 138.588 50.4922 137.781 51.2129 137.365C51.5732 137.157 51.9942 137.039 52.4863 137.025ZM61.9766 143.143C62.7911 144.029 63.6061 144.999 64.4141 146.043C63.62 146.01 62.8163 145.99 62 145.99C61.1675 145.99 60.3484 146.011 59.5391 146.045C60.3474 145 61.1618 144.03 61.9766 143.143ZM62 148.01C63.3599 148.01 64.6853 148.066 65.9746 148.16C66.8617 149.434 67.7286 150.786 68.5547 152.217C69.2805 153.474 69.9373 154.729 70.5352 155.969C69.931 157.225 69.2632 158.497 68.5273 159.772C67.8796 160.893 67.2032 161.959 66.5156 162.986C65.0593 163.108 63.5503 163.176 62 163.176C60.4124 163.176 58.8695 163.104 57.3809 162.977C56.7047 161.964 56.0397 160.913 55.4023 159.809C54.6682 158.537 54.0036 157.269 53.4004 156.016C54.0061 154.755 54.6737 153.478 55.4121 152.199C56.2338 150.776 57.0982 149.432 57.9805 148.164C59.2836 148.067 60.6245 148.01 62 148.01ZM68.5508 148.41C70.1985 148.616 71.7457 148.902 73.1855 149.244C72.7581 150.645 72.2317 152.109 71.5938 153.619C71.1796 152.821 70.7506 152.02 70.2871 151.217C69.7257 150.244 69.142 149.316 68.5508 148.41ZM55.3438 148.426C54.7647 149.315 54.1948 150.225 53.6445 151.178C53.1751 151.991 52.7372 152.803 52.3184 153.611C51.686 152.11 51.1627 150.655 50.7383 149.262C52.168 148.918 53.7068 148.634 55.3438 148.426ZM75.1641 149.775C75.8729 149.99 76.5576 150.214 77.1855 150.459C79.0957 151.205 80.6067 152.089 81.5859 152.992C82.5652 153.896 82.9902 154.758 82.9902 155.594C82.9902 156.43 82.5652 157.292 81.5859 158.195C80.6067 159.099 79.0957 159.982 77.1855 160.729C76.4877 161.001 75.721 161.248 74.9238 161.482C74.3552 159.724 73.6294 157.889 72.7656 156.016C73.7588 153.865 74.5611 151.768 75.1641 149.775ZM48.8027 149.785C49.3988 151.758 50.1909 153.834 51.1699 155.963C50.3005 157.847 49.5711 159.692 49 161.461C48.231 161.233 47.4902 160.992 46.8145 160.729C44.9043 159.982 43.3934 159.099 42.4141 158.195C41.4348 157.292 41.0098 156.43 41.0098 155.594C41.0098 154.758 41.4348 153.896 42.4141 152.992C43.3934 152.089 44.9043 151.205 46.8145 150.459C47.4328 150.218 48.1059 149.997 48.8027 149.785ZM62 151C59.2504 151 57 153.25 57 156C57 158.75 59.2504 161 62 161C64.7496 161 67 158.75 67 156C67 153.25 64.7496 151 62 151ZM62 153C63.6687 153 65 154.331 65 156C65 157.669 63.6687 159 62 159C60.3313 159 59 157.669 59 156C59 154.331 60.3313 153 62 153ZM71.6191 158.363C72.1436 159.605 72.5995 160.819 72.9824 161.99C71.7798 162.269 70.4993 162.504 69.1523 162.689C69.5401 162.071 69.923 161.441 70.2969 160.793C70.7656 159.981 71.2008 159.171 71.6191 158.363ZM52.3418 158.365C52.7623 159.177 53.2003 159.992 53.6719 160.809C54.0411 161.448 54.4181 162.072 54.8008 162.684C53.4578 162.497 52.1812 162.262 50.9824 161.982C51.3637 160.815 51.8197 159.603 52.3418 158.365ZM50.4062 163.924C52.2161 164.353 54.1777 164.682 56.2578 164.897C57.6467 166.905 59.0927 168.709 60.5488 170.287C59.8978 170.922 59.2526 171.518 58.6211 172.031C56.9954 173.354 55.4543 174.252 54.1699 174.668C52.8855 175.084 51.9269 175.029 51.2129 174.617C50.4988 174.205 49.973 173.403 49.6914 172.082C49.4098 170.762 49.4176 168.979 49.75 166.91C49.9008 165.972 50.1262 164.966 50.4062 163.924ZM73.5605 163.932C73.8428 164.98 74.0691 165.99 74.2207 166.934C74.5534 169.005 74.5617 170.789 74.2793 172.113C73.9969 173.438 73.4667 174.246 72.7461 174.662C72.0254 175.078 71.0596 175.134 69.7715 174.717C68.4834 174.299 66.9416 173.398 65.3145 172.074C64.6784 171.557 64.0287 170.958 63.373 170.318C64.8387 168.735 66.2955 166.921 67.6934 164.9C69.7787 164.687 71.7458 164.36 73.5605 163.932ZM58.8672 165.102C59.894 165.158 60.9342 165.195 62 165.195C63.0305 165.195 64.0371 165.16 65.0312 165.107C64.015 166.479 62.979 167.725 61.9473 168.848C60.9161 167.723 59.8821 166.474 58.8672 165.102Z" fill="#809191"/>
</g>
<g opacity="0.4">
<path d="M71.5547 134.984C70.775 134.958 69.9589 135.094 69.1406 135.359C67.5041 135.89 65.7892 136.924 64.0293 138.355C63.3396 138.917 62.6436 139.558 61.9453 140.238C61.2624 139.575 60.5807 138.949 59.9062 138.4C58.1478 136.97 56.4375 135.938 54.8047 135.408C53.1719 134.879 51.5472 134.862 50.2129 135.633C48.8786 136.403 48.0806 137.817 47.7227 139.496C47.3647 141.175 47.4022 143.174 47.7617 145.412C47.8866 146.19 48.0667 147.005 48.2695 147.836C47.5071 148.067 46.7667 148.31 46.0801 148.578C44.008 149.387 42.2934 150.356 41.0449 151.508C39.7964 152.66 38.9902 154.058 38.9902 155.594C38.9902 157.129 39.7964 158.526 41.0449 159.678C42.2934 160.83 44.008 161.8 46.0801 162.609C46.8143 162.896 47.6091 163.154 48.4297 163.398C48.1345 164.501 47.8954 165.571 47.7324 166.586C47.3726 168.826 47.3346 170.825 47.6934 172.508C48.0521 174.19 48.8505 175.613 50.1914 176.387C51.5323 177.161 53.1643 177.142 54.8008 176.611C56.4373 176.081 58.1502 175.049 59.9102 173.617C60.5935 173.061 61.2848 172.427 61.9766 171.754C62.6717 172.431 63.3663 173.069 64.0527 173.627C65.8112 175.057 67.5234 176.09 69.1562 176.619C70.7891 177.149 72.4118 177.165 73.7461 176.395C75.0804 175.624 75.8784 174.21 76.2363 172.531C76.5943 170.853 76.5549 168.853 76.1953 166.615C76.0319 165.598 75.7926 164.526 75.4961 163.42C76.3438 163.17 77.1637 162.905 77.9199 162.609C79.992 161.8 81.7066 160.83 82.9551 159.678C84.2036 158.526 85.0098 157.129 85.0098 155.594C85.0098 154.058 84.2036 152.66 82.9551 151.508C81.7066 150.356 79.992 149.387 77.9199 148.578C77.2235 148.306 76.4717 148.06 75.6973 147.826C75.9018 146.99 76.0833 146.169 76.209 145.387C76.5688 143.147 76.6068 141.145 76.248 139.463C75.8893 137.78 75.089 136.36 73.748 135.586C73.0776 135.199 72.3344 135.011 71.5547 134.984ZM71.4629 137.02C71.9522 137.033 72.3695 137.149 72.7266 137.355C73.4406 137.768 73.9684 138.57 74.25 139.891C74.5316 141.211 74.5218 142.995 74.1895 145.064C74.0756 145.773 73.9104 146.524 73.7227 147.293C71.6777 146.801 69.437 146.435 67.0488 146.221C65.8491 144.558 64.616 143.046 63.373 141.703C64.0302 141.062 64.6831 140.462 65.3203 139.943C66.946 138.621 68.4851 137.721 69.7695 137.305C70.4117 137.097 70.9736 137.006 71.4629 137.02ZM52.4863 137.025C52.9784 137.012 53.5415 137.102 54.1855 137.311C55.4737 137.728 57.0155 138.628 58.6426 139.951C59.2669 140.459 59.9055 141.046 60.5488 141.672C59.297 143.026 58.0552 144.554 56.8477 146.23C54.468 146.449 52.2353 146.818 50.1992 147.313C50.0127 146.547 49.8496 145.799 49.7363 145.094C49.4036 143.023 49.3953 141.236 49.6777 139.912C49.9601 138.588 50.4922 137.781 51.2129 137.365C51.5732 137.157 51.9942 137.039 52.4863 137.025ZM61.9766 143.143C62.7911 144.029 63.6061 144.999 64.4141 146.043C63.62 146.01 62.8163 145.99 62 145.99C61.1675 145.99 60.3484 146.011 59.5391 146.045C60.3474 145 61.1618 144.03 61.9766 143.143ZM62 148.01C63.3599 148.01 64.6853 148.066 65.9746 148.16C66.8617 149.434 67.7286 150.786 68.5547 152.217C69.2805 153.474 69.9373 154.729 70.5352 155.969C69.931 157.225 69.2632 158.497 68.5273 159.772C67.8796 160.893 67.2032 161.959 66.5156 162.986C65.0593 163.108 63.5503 163.176 62 163.176C60.4124 163.176 58.8695 163.104 57.3809 162.977C56.7047 161.964 56.0397 160.913 55.4023 159.809C54.6682 158.537 54.0036 157.269 53.4004 156.016C54.0061 154.755 54.6737 153.478 55.4121 152.199C56.2338 150.776 57.0982 149.432 57.9805 148.164C59.2836 148.067 60.6245 148.01 62 148.01ZM68.5508 148.41C70.1985 148.616 71.7457 148.902 73.1855 149.244C72.7581 150.645 72.2317 152.109 71.5938 153.619C71.1796 152.821 70.7506 152.02 70.2871 151.217C69.7257 150.244 69.142 149.316 68.5508 148.41ZM55.3438 148.426C54.7647 149.315 54.1948 150.225 53.6445 151.178C53.1751 151.991 52.7372 152.803 52.3184 153.611C51.686 152.11 51.1627 150.655 50.7383 149.262C52.168 148.918 53.7068 148.634 55.3438 148.426ZM75.1641 149.775C75.8729 149.99 76.5576 150.214 77.1855 150.459C79.0957 151.205 80.6067 152.089 81.5859 152.992C82.5652 153.896 82.9902 154.758 82.9902 155.594C82.9902 156.43 82.5652 157.292 81.5859 158.195C80.6067 159.099 79.0957 159.982 77.1855 160.729C76.4877 161.001 75.721 161.248 74.9238 161.482C74.3552 159.724 73.6294 157.889 72.7656 156.016C73.7588 153.865 74.5611 151.768 75.1641 149.775ZM48.8027 149.785C49.3988 151.758 50.1909 153.834 51.1699 155.963C50.3005 157.847 49.5711 159.692 49 161.461C48.231 161.233 47.4902 160.992 46.8145 160.729C44.9043 159.982 43.3934 159.099 42.4141 158.195C41.4348 157.292 41.0098 156.43 41.0098 155.594C41.0098 154.758 41.4348 153.896 42.4141 152.992C43.3934 152.089 44.9043 151.205 46.8145 150.459C47.4328 150.218 48.1059 149.997 48.8027 149.785ZM62 151C59.2504 151 57 153.25 57 156C57 158.75 59.2504 161 62 161C64.7496 161 67 158.75 67 156C67 153.25 64.7496 151 62 151ZM62 153C63.6687 153 65 154.331 65 156C65 157.669 63.6687 159 62 159C60.3313 159 59 157.669 59 156C59 154.331 60.3313 153 62 153ZM71.6191 158.363C72.1436 159.605 72.5995 160.819 72.9824 161.99C71.7798 162.269 70.4993 162.504 69.1523 162.689C69.5401 162.071 69.923 161.441 70.2969 160.793C70.7656 159.981 71.2008 159.171 71.6191 158.363ZM52.3418 158.365C52.7623 159.177 53.2003 159.992 53.6719 160.809C54.0411 161.448 54.4181 162.072 54.8008 162.684C53.4578 162.497 52.1812 162.262 50.9824 161.982C51.3637 160.815 51.8197 159.603 52.3418 158.365ZM50.4062 163.924C52.2161 164.353 54.1777 164.682 56.2578 164.897C57.6467 166.905 59.0927 168.709 60.5488 170.287C59.8978 170.922 59.2526 171.518 58.6211 172.031C56.9954 173.354 55.4543 174.252 54.1699 174.668C52.8855 175.084 51.9269 175.029 51.2129 174.617C50.4988 174.205 49.973 173.403 49.6914 172.082C49.4098 170.762 49.4176 168.979 49.75 166.91C49.9008 165.972 50.1262 164.966 50.4062 163.924ZM73.5605 163.932C73.8428 164.98 74.0691 165.99 74.2207 166.934C74.5534 169.005 74.5617 170.789 74.2793 172.113C73.9969 173.438 73.4667 174.246 72.7461 174.662C72.0254 175.078 71.0596 175.134 69.7715 174.717C68.4834 174.299 66.9416 173.398 65.3145 172.074C64.6784 171.557 64.0287 170.958 63.373 170.318C64.8387 168.735 66.2955 166.921 67.6934 164.9C69.7787 164.687 71.7458 164.36 73.5605 163.932ZM58.8672 165.102C59.894 165.158 60.9342 165.195 62 165.195C63.0305 165.195 64.0371 165.16 65.0312 165.107C64.015 166.479 62.979 167.725 61.9473 168.848C60.9161 167.723 59.8821 166.474 58.8672 165.102Z" fill="#809191"/>
</g>
<g opacity="0.2">
<path d="M90.5547 315.984C89.775 315.958 88.9589 316.094 88.1406 316.359C86.5041 316.89 84.7892 317.924 83.0293 319.355C82.3396 319.917 81.6436 320.558 80.9453 321.238C80.2624 320.575 79.5807 319.949 78.9062 319.4C77.1478 317.97 75.4375 316.938 73.8047 316.408C72.1719 315.879 70.5472 315.862 69.2129 316.633C67.8786 317.403 67.0806 318.817 66.7227 320.496C66.3647 322.175 66.4022 324.174 66.7617 326.412C66.8866 327.19 67.0667 328.005 67.2695 328.836C66.5071 329.067 65.7667 329.31 65.0801 329.578C63.008 330.387 61.2934 331.356 60.0449 332.508C58.7964 333.66 57.9902 335.058 57.9902 336.594C57.9902 338.129 58.7964 339.526 60.0449 340.678C61.2934 341.83 63.008 342.8 65.0801 343.609C65.8143 343.896 66.6091 344.154 67.4297 344.398C67.1345 345.501 66.8954 346.571 66.7324 347.586C66.3726 349.826 66.3346 351.825 66.6934 353.508C67.0521 355.19 67.8505 356.613 69.1914 357.387C70.5323 358.161 72.1643 358.142 73.8008 357.611C75.4373 357.081 77.1502 356.049 78.9102 354.617C79.5935 354.061 80.2848 353.427 80.9766 352.754C81.6717 353.431 82.3663 354.069 83.0527 354.627C84.8112 356.057 86.5234 357.09 88.1562 357.619C89.7891 358.149 91.4118 358.165 92.7461 357.395C94.0804 356.624 94.8784 355.21 95.2363 353.531C95.5943 351.853 95.5549 349.853 95.1953 347.615C95.0319 346.598 94.7926 345.526 94.4961 344.42C95.3438 344.17 96.1637 343.905 96.9199 343.609C98.992 342.8 100.707 341.83 101.955 340.678C103.204 339.526 104.01 338.129 104.01 336.594C104.01 335.058 103.204 333.66 101.955 332.508C100.707 331.356 98.992 330.387 96.9199 329.578C96.2235 329.306 95.4717 329.06 94.6973 328.826C94.9018 327.99 95.0833 327.169 95.209 326.387C95.5688 324.147 95.6068 322.145 95.248 320.463C94.8893 318.78 94.089 317.36 92.748 316.586C92.0776 316.199 91.3344 316.011 90.5547 315.984ZM90.4629 318.02C90.9522 318.033 91.3695 318.149 91.7266 318.355C92.4406 318.768 92.9684 319.57 93.25 320.891C93.5316 322.211 93.5218 323.995 93.1895 326.064C93.0756 326.773 92.9104 327.524 92.7227 328.293C90.6777 327.801 88.437 327.435 86.0488 327.221C84.8491 325.558 83.616 324.046 82.373 322.703C83.0302 322.062 83.6831 321.462 84.3203 320.943C85.946 319.621 87.4851 318.721 88.7695 318.305C89.4117 318.097 89.9736 318.006 90.4629 318.02ZM71.4863 318.025C71.9784 318.012 72.5415 318.102 73.1855 318.311C74.4737 318.728 76.0155 319.628 77.6426 320.951C78.2669 321.459 78.9055 322.046 79.5488 322.672C78.297 324.026 77.0552 325.554 75.8477 327.23C73.468 327.449 71.2353 327.818 69.1992 328.313C69.0127 327.547 68.8496 326.799 68.7363 326.094C68.4036 324.023 68.3953 322.236 68.6777 320.912C68.9601 319.588 69.4922 318.781 70.2129 318.365C70.5732 318.157 70.9942 318.039 71.4863 318.025ZM80.9766 324.143C81.7911 325.029 82.6061 325.999 83.4141 327.043C82.62 327.01 81.8163 326.99 81 326.99C80.1675 326.99 79.3484 327.011 78.5391 327.045C79.3474 326 80.1618 325.03 80.9766 324.143ZM81 329.01C82.3599 329.01 83.6853 329.066 84.9746 329.16C85.8617 330.434 86.7286 331.786 87.5547 333.217C88.2805 334.474 88.9373 335.729 89.5352 336.969C88.931 338.225 88.2632 339.497 87.5273 340.772C86.8796 341.893 86.2032 342.959 85.5156 343.986C84.0593 344.108 82.5503 344.176 81 344.176C79.4124 344.176 77.8695 344.104 76.3809 343.977C75.7047 342.964 75.0397 341.913 74.4023 340.809C73.6682 339.537 73.0036 338.269 72.4004 337.016C73.0061 335.755 73.6737 334.478 74.4121 333.199C75.2338 331.776 76.0982 330.432 76.9805 329.164C78.2836 329.067 79.6245 329.01 81 329.01ZM87.5508 329.41C89.1985 329.616 90.7457 329.902 92.1855 330.244C91.7581 331.645 91.2317 333.109 90.5938 334.619C90.1796 333.821 89.7506 333.02 89.2871 332.217C88.7257 331.244 88.142 330.316 87.5508 329.41ZM74.3438 329.426C73.7647 330.315 73.1948 331.225 72.6445 332.178C72.1751 332.991 71.7372 333.803 71.3184 334.611C70.686 333.11 70.1627 331.655 69.7383 330.262C71.168 329.918 72.7068 329.634 74.3438 329.426ZM94.1641 330.775C94.8729 330.99 95.5576 331.214 96.1855 331.459C98.0957 332.205 99.6067 333.089 100.586 333.992C101.565 334.896 101.99 335.758 101.99 336.594C101.99 337.43 101.565 338.292 100.586 339.195C99.6067 340.099 98.0957 340.982 96.1855 341.729C95.4877 342.001 94.721 342.248 93.9238 342.482C93.3552 340.724 92.6294 338.889 91.7656 337.016C92.7588 334.865 93.5611 332.768 94.1641 330.775ZM67.8027 330.785C68.3988 332.758 69.1909 334.834 70.1699 336.963C69.3005 338.847 68.5711 340.692 68 342.461C67.231 342.233 66.4902 341.992 65.8145 341.729C63.9043 340.982 62.3934 340.099 61.4141 339.195C60.4348 338.292 60.0098 337.43 60.0098 336.594C60.0098 335.758 60.4348 334.896 61.4141 333.992C62.3934 333.089 63.9043 332.205 65.8145 331.459C66.4328 331.218 67.1059 330.997 67.8027 330.785ZM81 332C78.2504 332 76 334.25 76 337C76 339.75 78.2504 342 81 342C83.7496 342 86 339.75 86 337C86 334.25 83.7496 332 81 332ZM81 334C82.6687 334 84 335.331 84 337C84 338.669 82.6687 340 81 340C79.3313 340 78 338.669 78 337C78 335.331 79.3313 334 81 334ZM90.6191 339.363C91.1436 340.605 91.5995 341.819 91.9824 342.99C90.7798 343.269 89.4993 343.504 88.1523 343.689C88.5401 343.071 88.923 342.441 89.2969 341.793C89.7656 340.981 90.2008 340.171 90.6191 339.363ZM71.3418 339.365C71.7623 340.177 72.2003 340.992 72.6719 341.809C73.0411 342.448 73.4181 343.072 73.8008 343.684C72.4578 343.497 71.1812 343.262 69.9824 342.982C70.3637 341.815 70.8197 340.603 71.3418 339.365ZM69.4062 344.924C71.2161 345.353 73.1777 345.682 75.2578 345.897C76.6467 347.905 78.0927 349.709 79.5488 351.287C78.8978 351.922 78.2526 352.518 77.6211 353.031C75.9954 354.354 74.4543 355.252 73.1699 355.668C71.8855 356.084 70.9269 356.029 70.2129 355.617C69.4988 355.205 68.973 354.403 68.6914 353.082C68.4098 351.762 68.4176 349.979 68.75 347.91C68.9008 346.972 69.1262 345.966 69.4062 344.924ZM92.5605 344.932C92.8428 345.98 93.0691 346.99 93.2207 347.934C93.5534 350.005 93.5617 351.789 93.2793 353.113C92.9969 354.438 92.4667 355.246 91.7461 355.662C91.0254 356.078 90.0596 356.134 88.7715 355.717C87.4834 355.299 85.9416 354.398 84.3145 353.074C83.6784 352.557 83.0287 351.958 82.373 351.318C83.8387 349.735 85.2955 347.921 86.6934 345.9C88.7787 345.687 90.7458 345.36 92.5605 344.932ZM77.8672 346.102C78.894 346.158 79.9342 346.195 81 346.195C82.0305 346.195 83.0371 346.16 84.0312 346.107C83.015 347.479 81.979 348.725 80.9473 349.848C79.9161 348.723 78.8821 347.474 77.8672 346.102Z" fill="#809191"/>
</g>
<g opacity="0.4">
<path d="M170.555 3.9844C169.775 3.95818 168.959 4.09412 168.141 4.3594C166.504 4.88996 164.789 5.92391 163.029 7.35549C162.34 7.91653 161.644 8.55785 160.945 9.2383C160.262 8.57513 159.581 7.94907 158.906 7.40041C157.148 5.96998 155.438 4.93759 153.805 4.40823C152.172 3.87886 150.547 3.86246 149.213 4.63284C147.879 5.40321 147.081 6.81738 146.723 8.49612C146.365 10.1749 146.402 12.174 146.762 14.4121C146.887 15.1895 147.067 16.0051 147.27 16.836C146.507 17.067 145.767 17.31 145.08 17.5781C143.008 18.3875 141.293 19.3557 140.045 20.5078C138.796 21.66 137.99 23.0583 137.99 24.5938C137.99 26.1292 138.796 27.5256 140.045 28.6778C141.293 29.8299 143.008 30.8001 145.08 31.6094C145.814 31.8961 146.609 32.1543 147.43 32.3985C147.135 33.5013 146.895 34.5715 146.732 35.586C146.373 37.8259 146.335 39.8253 146.693 41.5078C147.052 43.1904 147.85 44.6126 149.191 45.3867C150.532 46.1609 152.164 46.1419 153.801 45.6114C155.437 45.0808 157.15 44.0488 158.91 42.6172C159.594 42.0613 160.285 41.4272 160.977 40.7539C161.672 41.4309 162.366 42.0686 163.053 42.627C164.811 44.0574 166.523 45.0898 168.156 45.6192C169.789 46.1485 171.412 46.1649 172.746 45.3946C174.08 44.6242 174.878 43.21 175.236 41.5313C175.594 39.8525 175.555 37.8534 175.195 35.6153C175.032 34.598 174.793 33.5262 174.496 32.4199C175.344 32.1699 176.164 31.9047 176.92 31.6094C178.992 30.8001 180.707 29.8299 181.955 28.6778C183.204 27.5256 184.01 26.1292 184.01 24.5938C184.01 23.0583 183.204 21.66 181.955 20.5078C180.707 19.3557 178.992 18.3875 176.92 17.5781C176.223 17.3061 175.472 17.06 174.697 16.8262C174.902 15.9902 175.083 15.1688 175.209 14.3867C175.569 12.1468 175.607 10.1455 175.248 8.46291C174.889 6.78037 174.089 5.36015 172.748 4.58596C172.078 4.19887 171.334 4.01061 170.555 3.9844ZM170.463 6.01955C170.952 6.03293 171.37 6.14936 171.727 6.35549C172.441 6.76775 172.968 7.57012 173.25 8.89065C173.532 10.2112 173.522 11.9954 173.189 14.0645C173.076 14.7729 172.91 15.5237 172.723 16.293C170.678 15.8009 168.437 15.4354 166.049 15.2207C164.849 13.5585 163.616 12.0464 162.373 10.7031C163.03 10.0617 163.683 9.46175 164.32 8.94338C165.946 7.62096 167.485 6.72112 168.77 6.30471C169.412 6.09651 169.974 6.00618 170.463 6.01955ZM151.486 6.02541C151.978 6.01168 152.541 6.10176 153.186 6.31057C154.474 6.72818 156.015 7.62762 157.643 8.95119C158.267 9.45904 158.905 10.0459 159.549 10.6719C158.297 12.0258 157.055 13.5537 155.848 15.2305C153.468 15.4492 151.235 15.818 149.199 16.3125C149.013 15.5469 148.85 14.7991 148.736 14.0938C148.404 12.0229 148.395 10.2365 148.678 8.91213C148.96 7.58779 149.492 6.78133 150.213 6.36526C150.573 6.15722 150.994 6.03915 151.486 6.02541ZM160.977 12.1426C161.791 13.029 162.606 13.9993 163.414 15.043C162.62 15.0099 161.816 14.9903 161 14.9903C160.167 14.9903 159.348 15.0105 158.539 15.0449C159.347 14.0003 160.162 13.0298 160.977 12.1426ZM161 17.0098C162.36 17.0098 163.685 17.0657 164.975 17.1602C165.862 18.4343 166.729 19.7861 167.555 21.2168C168.281 22.474 168.937 23.7292 169.535 24.9688C168.931 26.2248 168.263 27.497 167.527 28.7715C166.88 29.8934 166.203 30.959 165.516 31.9864C164.059 32.1081 162.55 32.1758 161 32.1758C159.412 32.1758 157.869 32.1041 156.381 31.9766C155.705 30.964 155.04 29.9126 154.402 28.8086C153.668 27.537 153.004 26.2691 152.4 25.0156C153.006 23.7551 153.674 22.4782 154.412 21.1992C155.234 19.776 156.098 18.4321 156.98 17.1641C158.284 17.0674 159.624 17.0098 161 17.0098ZM167.551 17.4102C169.199 17.6158 170.746 17.9016 172.186 18.2442C171.758 19.6453 171.232 21.1088 170.594 22.6192C170.18 21.8207 169.751 21.0196 169.287 20.2168C168.726 19.2445 168.142 18.316 167.551 17.4102ZM154.344 17.4258C153.765 18.3151 153.195 19.2246 152.645 20.1778C152.175 20.9908 151.737 21.8028 151.318 22.6114C150.686 21.1101 150.163 19.6549 149.738 18.2617C151.168 17.9184 152.707 17.6338 154.344 17.4258ZM174.164 18.7754C174.873 18.9899 175.558 19.2137 176.186 19.459C178.096 20.2051 179.607 21.0885 180.586 21.9922C181.565 22.8959 181.99 23.7577 181.99 24.5938C181.99 25.4298 181.565 26.2916 180.586 27.1953C179.607 28.099 178.096 28.9825 176.186 29.7285C175.488 30.0011 174.721 30.2483 173.924 30.4824C173.355 28.7237 172.629 26.8888 171.766 25.0156C172.759 22.8651 173.561 20.7683 174.164 18.7754ZM147.803 18.7852C148.399 20.7581 149.191 22.8342 150.17 24.9629C149.3 26.847 148.571 28.6923 148 30.461C147.231 30.2329 146.49 29.9925 145.814 29.7285C143.904 28.9825 142.393 28.099 141.414 27.1953C140.435 26.2916 140.01 25.4298 140.01 24.5938C140.01 23.7577 140.435 22.8959 141.414 21.9922C142.393 21.0885 143.904 20.2051 145.814 19.459C146.433 19.2175 147.106 18.9969 147.803 18.7852ZM161 20C158.25 20 156 22.2504 156 25C156 27.7496 158.25 30 161 30C163.75 30 166 27.7496 166 25C166 22.2504 163.75 20 161 20ZM161 22C162.669 22 164 23.3313 164 25C164 26.6687 162.669 28 161 28C159.331 28 158 26.6687 158 25C158 23.3313 159.331 22 161 22ZM170.619 27.3633C171.144 28.6045 171.599 29.8191 171.982 30.9903C170.78 31.2691 169.499 31.5041 168.152 31.6895C168.54 31.0708 168.923 30.4406 169.297 29.793C169.766 28.9812 170.201 28.1705 170.619 27.3633ZM151.342 27.3653C151.762 28.1775 152.2 28.9918 152.672 29.8086C153.041 30.4481 153.418 31.0724 153.801 31.6836C152.458 31.4974 151.181 31.2616 149.982 30.9824C150.364 29.8148 150.82 28.6028 151.342 27.3653ZM149.406 32.9239C151.216 33.3526 153.178 33.6819 155.258 33.8965C156.647 35.9053 158.093 37.7093 159.549 39.2871C158.898 39.9219 158.253 40.5176 157.621 41.0313C155.995 42.3537 154.454 43.2516 153.17 43.668C151.886 44.0844 150.927 44.0295 150.213 43.6172C149.499 43.2049 148.973 42.4026 148.691 41.0821C148.41 39.7615 148.418 37.9793 148.75 35.9102C148.901 34.9715 149.126 33.9664 149.406 32.9239ZM172.561 32.9317C172.843 33.98 173.069 34.9898 173.221 35.9336C173.553 38.0045 173.562 39.789 173.279 41.1133C172.997 42.4376 172.467 43.2461 171.746 43.6621C171.025 44.0782 170.06 44.1344 168.771 43.7168C167.483 43.2992 165.942 42.3978 164.314 41.0742C163.678 40.5569 163.029 39.9583 162.373 39.3184C163.839 37.7346 165.295 35.9208 166.693 33.9004C168.779 33.6873 170.746 33.3599 172.561 32.9317ZM157.867 34.1016C158.894 34.1575 159.934 34.1953 161 34.1953C162.031 34.1953 163.037 34.1598 164.031 34.1074C163.015 35.4786 161.979 36.7252 160.947 37.8477C159.916 36.7228 158.882 35.474 157.867 34.1016Z" fill="#809191"/>
</g>
<g opacity="0.4">
<path d="M170.555 3.9844C169.775 3.95818 168.959 4.09412 168.141 4.3594C166.504 4.88996 164.789 5.92391 163.029 7.35549C162.34 7.91653 161.644 8.55785 160.945 9.2383C160.262 8.57513 159.581 7.94907 158.906 7.40041C157.148 5.96998 155.438 4.93759 153.805 4.40823C152.172 3.87886 150.547 3.86246 149.213 4.63284C147.879 5.40321 147.081 6.81738 146.723 8.49612C146.365 10.1749 146.402 12.174 146.762 14.4121C146.887 15.1895 147.067 16.0051 147.27 16.836C146.507 17.067 145.767 17.31 145.08 17.5781C143.008 18.3875 141.293 19.3557 140.045 20.5078C138.796 21.66 137.99 23.0583 137.99 24.5938C137.99 26.1292 138.796 27.5256 140.045 28.6778C141.293 29.8299 143.008 30.8001 145.08 31.6094C145.814 31.8961 146.609 32.1543 147.43 32.3985C147.135 33.5013 146.895 34.5715 146.732 35.586C146.373 37.8259 146.335 39.8253 146.693 41.5078C147.052 43.1904 147.85 44.6126 149.191 45.3867C150.532 46.1609 152.164 46.1419 153.801 45.6114C155.437 45.0808 157.15 44.0488 158.91 42.6172C159.594 42.0613 160.285 41.4272 160.977 40.7539C161.672 41.4309 162.366 42.0686 163.053 42.627C164.811 44.0574 166.523 45.0898 168.156 45.6192C169.789 46.1485 171.412 46.1649 172.746 45.3946C174.08 44.6242 174.878 43.21 175.236 41.5313C175.594 39.8525 175.555 37.8534 175.195 35.6153C175.032 34.598 174.793 33.5262 174.496 32.4199C175.344 32.1699 176.164 31.9047 176.92 31.6094C178.992 30.8001 180.707 29.8299 181.955 28.6778C183.204 27.5256 184.01 26.1292 184.01 24.5938C184.01 23.0583 183.204 21.66 181.955 20.5078C180.707 19.3557 178.992 18.3875 176.92 17.5781C176.223 17.3061 175.472 17.06 174.697 16.8262C174.902 15.9902 175.083 15.1688 175.209 14.3867C175.569 12.1468 175.607 10.1455 175.248 8.46291C174.889 6.78037 174.089 5.36015 172.748 4.58596C172.078 4.19887 171.334 4.01061 170.555 3.9844ZM170.463 6.01955C170.952 6.03293 171.37 6.14936 171.727 6.35549C172.441 6.76775 172.968 7.57012 173.25 8.89065C173.532 10.2112 173.522 11.9954 173.189 14.0645C173.076 14.7729 172.91 15.5237 172.723 16.293C170.678 15.8009 168.437 15.4354 166.049 15.2207C164.849 13.5585 163.616 12.0464 162.373 10.7031C163.03 10.0617 163.683 9.46175 164.32 8.94338C165.946 7.62096 167.485 6.72112 168.77 6.30471C169.412 6.09651 169.974 6.00618 170.463 6.01955ZM151.486 6.02541C151.978 6.01168 152.541 6.10176 153.186 6.31057C154.474 6.72818 156.015 7.62762 157.643 8.95119C158.267 9.45904 158.905 10.0459 159.549 10.6719C158.297 12.0258 157.055 13.5537 155.848 15.2305C153.468 15.4492 151.235 15.818 149.199 16.3125C149.013 15.5469 148.85 14.7991 148.736 14.0938C148.404 12.0229 148.395 10.2365 148.678 8.91213C148.96 7.58779 149.492 6.78133 150.213 6.36526C150.573 6.15722 150.994 6.03915 151.486 6.02541ZM160.977 12.1426C161.791 13.029 162.606 13.9993 163.414 15.043C162.62 15.0099 161.816 14.9903 161 14.9903C160.167 14.9903 159.348 15.0105 158.539 15.0449C159.347 14.0003 160.162 13.0298 160.977 12.1426ZM161 17.0098C162.36 17.0098 163.685 17.0657 164.975 17.1602C165.862 18.4343 166.729 19.7861 167.555 21.2168C168.281 22.474 168.937 23.7292 169.535 24.9688C168.931 26.2248 168.263 27.497 167.527 28.7715C166.88 29.8934 166.203 30.959 165.516 31.9864C164.059 32.1081 162.55 32.1758 161 32.1758C159.412 32.1758 157.869 32.1041 156.381 31.9766C155.705 30.964 155.04 29.9126 154.402 28.8086C153.668 27.537 153.004 26.2691 152.4 25.0156C153.006 23.7551 153.674 22.4782 154.412 21.1992C155.234 19.776 156.098 18.4321 156.98 17.1641C158.284 17.0674 159.624 17.0098 161 17.0098ZM167.551 17.4102C169.199 17.6158 170.746 17.9016 172.186 18.2442C171.758 19.6453 171.232 21.1088 170.594 22.6192C170.18 21.8207 169.751 21.0196 169.287 20.2168C168.726 19.2445 168.142 18.316 167.551 17.4102ZM154.344 17.4258C153.765 18.3151 153.195 19.2246 152.645 20.1778C152.175 20.9908 151.737 21.8028 151.318 22.6114C150.686 21.1101 150.163 19.6549 149.738 18.2617C151.168 17.9184 152.707 17.6338 154.344 17.4258ZM174.164 18.7754C174.873 18.9899 175.558 19.2137 176.186 19.459C178.096 20.2051 179.607 21.0885 180.586 21.9922C181.565 22.8959 181.99 23.7577 181.99 24.5938C181.99 25.4298 181.565 26.2916 180.586 27.1953C179.607 28.099 178.096 28.9825 176.186 29.7285C175.488 30.0011 174.721 30.2483 173.924 30.4824C173.355 28.7237 172.629 26.8888 171.766 25.0156C172.759 22.8651 173.561 20.7683 174.164 18.7754ZM147.803 18.7852C148.399 20.7581 149.191 22.8342 150.17 24.9629C149.3 26.847 148.571 28.6923 148 30.461C147.231 30.2329 146.49 29.9925 145.814 29.7285C143.904 28.9825 142.393 28.099 141.414 27.1953C140.435 26.2916 140.01 25.4298 140.01 24.5938C140.01 23.7577 140.435 22.8959 141.414 21.9922C142.393 21.0885 143.904 20.2051 145.814 19.459C146.433 19.2175 147.106 18.9969 147.803 18.7852ZM161 20C158.25 20 156 22.2504 156 25C156 27.7496 158.25 30 161 30C163.75 30 166 27.7496 166 25C166 22.2504 163.75 20 161 20ZM161 22C162.669 22 164 23.3313 164 25C164 26.6687 162.669 28 161 28C159.331 28 158 26.6687 158 25C158 23.3313 159.331 22 161 22ZM170.619 27.3633C171.144 28.6045 171.599 29.8191 171.982 30.9903C170.78 31.2691 169.499 31.5041 168.152 31.6895C168.54 31.0708 168.923 30.4406 169.297 29.793C169.766 28.9812 170.201 28.1705 170.619 27.3633ZM151.342 27.3653C151.762 28.1775 152.2 28.9918 152.672 29.8086C153.041 30.4481 153.418 31.0724 153.801 31.6836C152.458 31.4974 151.181 31.2616 149.982 30.9824C150.364 29.8148 150.82 28.6028 151.342 27.3653ZM149.406 32.9239C151.216 33.3526 153.178 33.6819 155.258 33.8965C156.647 35.9053 158.093 37.7093 159.549 39.2871C158.898 39.9219 158.253 40.5176 157.621 41.0313C155.995 42.3537 154.454 43.2516 153.17 43.668C151.886 44.0844 150.927 44.0295 150.213 43.6172C149.499 43.2049 148.973 42.4026 148.691 41.0821C148.41 39.7615 148.418 37.9793 148.75 35.9102C148.901 34.9715 149.126 33.9664 149.406 32.9239ZM172.561 32.9317C172.843 33.98 173.069 34.9898 173.221 35.9336C173.553 38.0045 173.562 39.789 173.279 41.1133C172.997 42.4376 172.467 43.2461 171.746 43.6621C171.025 44.0782 170.06 44.1344 168.771 43.7168C167.483 43.2992 165.942 42.3978 164.314 41.0742C163.678 40.5569 163.029 39.9583 162.373 39.3184C163.839 37.7346 165.295 35.9208 166.693 33.9004C168.779 33.6873 170.746 33.3599 172.561 32.9317ZM157.867 34.1016C158.894 34.1575 159.934 34.1953 161 34.1953C162.031 34.1953 163.037 34.1598 164.031 34.1074C163.015 35.4786 161.979 36.7252 160.947 37.8477C159.916 36.7228 158.882 35.474 157.867 34.1016Z" fill="#809191"/>
</g>
<g opacity="0.3">
<path d="M189.555 184.984C188.775 184.958 187.959 185.094 187.141 185.359C185.504 185.89 183.789 186.924 182.029 188.355C181.34 188.917 180.644 189.558 179.945 190.238C179.262 189.575 178.581 188.949 177.906 188.4C176.148 186.97 174.438 185.938 172.805 185.408C171.172 184.879 169.547 184.862 168.213 185.633C166.879 186.403 166.081 187.817 165.723 189.496C165.365 191.175 165.402 193.174 165.762 195.412C165.887 196.19 166.067 197.005 166.27 197.836C165.507 198.067 164.767 198.31 164.08 198.578C162.008 199.387 160.293 200.356 159.045 201.508C157.796 202.66 156.99 204.058 156.99 205.594C156.99 207.129 157.796 208.526 159.045 209.678C160.293 210.83 162.008 211.8 164.08 212.609C164.814 212.896 165.609 213.154 166.43 213.398C166.135 214.501 165.895 215.571 165.732 216.586C165.373 218.826 165.335 220.825 165.693 222.508C166.052 224.19 166.85 225.613 168.191 226.387C169.532 227.161 171.164 227.142 172.801 226.611C174.437 226.081 176.15 225.049 177.91 223.617C178.594 223.061 179.285 222.427 179.977 221.754C180.672 222.431 181.366 223.069 182.053 223.627C183.811 225.057 185.523 226.09 187.156 226.619C188.789 227.149 190.412 227.165 191.746 226.395C193.08 225.624 193.878 224.21 194.236 222.531C194.594 220.853 194.555 218.853 194.195 216.615C194.032 215.598 193.793 214.526 193.496 213.42C194.344 213.17 195.164 212.905 195.92 212.609C197.992 211.8 199.707 210.83 200.955 209.678C202.204 208.526 203.01 207.129 203.01 205.594C203.01 204.058 202.204 202.66 200.955 201.508C199.707 200.356 197.992 199.387 195.92 198.578C195.223 198.306 194.472 198.06 193.697 197.826C193.902 196.99 194.083 196.169 194.209 195.387C194.569 193.147 194.607 191.145 194.248 189.463C193.889 187.78 193.089 186.36 191.748 185.586C191.078 185.199 190.334 185.011 189.555 184.984ZM189.463 187.02C189.952 187.033 190.37 187.149 190.727 187.355C191.441 187.768 191.968 188.57 192.25 189.891C192.532 191.211 192.522 192.995 192.189 195.064C192.076 195.773 191.91 196.524 191.723 197.293C189.678 196.801 187.437 196.435 185.049 196.221C183.849 194.558 182.616 193.046 181.373 191.703C182.03 191.062 182.683 190.462 183.32 189.943C184.946 188.621 186.485 187.721 187.77 187.305C188.412 187.097 188.974 187.006 189.463 187.02ZM170.486 187.025C170.978 187.012 171.541 187.102 172.186 187.311C173.474 187.728 175.015 188.628 176.643 189.951C177.267 190.459 177.905 191.046 178.549 191.672C177.297 193.026 176.055 194.554 174.848 196.23C172.468 196.449 170.235 196.818 168.199 197.313C168.013 196.547 167.85 195.799 167.736 195.094C167.404 193.023 167.395 191.236 167.678 189.912C167.96 188.588 168.492 187.781 169.213 187.365C169.573 187.157 169.994 187.039 170.486 187.025ZM179.977 193.143C180.791 194.029 181.606 194.999 182.414 196.043C181.62 196.01 180.816 195.99 180 195.99C179.167 195.99 178.348 196.011 177.539 196.045C178.347 195 179.162 194.03 179.977 193.143ZM180 198.01C181.36 198.01 182.685 198.066 183.975 198.16C184.862 199.434 185.729 200.786 186.555 202.217C187.281 203.474 187.937 204.729 188.535 205.969C187.931 207.225 187.263 208.497 186.527 209.772C185.88 210.893 185.203 211.959 184.516 212.986C183.059 213.108 181.55 213.176 180 213.176C178.412 213.176 176.869 213.104 175.381 212.977C174.705 211.964 174.04 210.913 173.402 209.809C172.668 208.537 172.004 207.269 171.4 206.016C172.006 204.755 172.674 203.478 173.412 202.199C174.234 200.776 175.098 199.432 175.98 198.164C177.284 198.067 178.624 198.01 180 198.01ZM186.551 198.41C188.199 198.616 189.746 198.902 191.186 199.244C190.758 200.645 190.232 202.109 189.594 203.619C189.18 202.821 188.751 202.02 188.287 201.217C187.726 200.244 187.142 199.316 186.551 198.41ZM173.344 198.426C172.765 199.315 172.195 200.225 171.645 201.178C171.175 201.991 170.737 202.803 170.318 203.611C169.686 202.11 169.163 200.655 168.738 199.262C170.168 198.918 171.707 198.634 173.344 198.426ZM193.164 199.775C193.873 199.99 194.558 200.214 195.186 200.459C197.096 201.205 198.607 202.089 199.586 202.992C200.565 203.896 200.99 204.758 200.99 205.594C200.99 206.43 200.565 207.292 199.586 208.195C198.607 209.099 197.096 209.982 195.186 210.729C194.488 211.001 193.721 211.248 192.924 211.482C192.355 209.724 191.629 207.889 190.766 206.016C191.759 203.865 192.561 201.768 193.164 199.775ZM166.803 199.785C167.399 201.758 168.191 203.834 169.17 205.963C168.3 207.847 167.571 209.692 167 211.461C166.231 211.233 165.49 210.992 164.814 210.729C162.904 209.982 161.393 209.099 160.414 208.195C159.435 207.292 159.01 206.43 159.01 205.594C159.01 204.758 159.435 203.896 160.414 202.992C161.393 202.089 162.904 201.205 164.814 200.459C165.433 200.218 166.106 199.997 166.803 199.785ZM180 201C177.25 201 175 203.25 175 206C175 208.75 177.25 211 180 211C182.75 211 185 208.75 185 206C185 203.25 182.75 201 180 201ZM180 203C181.669 203 183 204.331 183 206C183 207.669 181.669 209 180 209C178.331 209 177 207.669 177 206C177 204.331 178.331 203 180 203ZM189.619 208.363C190.144 209.605 190.599 210.819 190.982 211.99C189.78 212.269 188.499 212.504 187.152 212.689C187.54 212.071 187.923 211.441 188.297 210.793C188.766 209.981 189.201 209.171 189.619 208.363ZM170.342 208.365C170.762 209.177 171.2 209.992 171.672 210.809C172.041 211.448 172.418 212.072 172.801 212.684C171.458 212.497 170.181 212.262 168.982 211.982C169.364 210.815 169.82 209.603 170.342 208.365ZM168.406 213.924C170.216 214.353 172.178 214.682 174.258 214.897C175.647 216.905 177.093 218.709 178.549 220.287C177.898 220.922 177.253 221.518 176.621 222.031C174.995 223.354 173.454 224.252 172.17 224.668C170.886 225.084 169.927 225.029 169.213 224.617C168.499 224.205 167.973 223.403 167.691 222.082C167.41 220.762 167.418 218.979 167.75 216.91C167.901 215.972 168.126 214.966 168.406 213.924ZM191.561 213.932C191.843 214.98 192.069 215.99 192.221 216.934C192.553 219.005 192.562 220.789 192.279 222.113C191.997 223.438 191.467 224.246 190.746 224.662C190.025 225.078 189.06 225.134 187.771 224.717C186.483 224.299 184.942 223.398 183.314 222.074C182.678 221.557 182.029 220.958 181.373 220.318C182.839 218.735 184.295 216.921 185.693 214.9C187.779 214.687 189.746 214.36 191.561 213.932ZM176.867 215.102C177.894 215.158 178.934 215.195 180 215.195C181.031 215.195 182.037 215.16 183.031 215.107C182.015 216.479 180.979 217.725 179.947 218.848C178.916 217.723 177.882 216.474 176.867 215.102Z" fill="#809191"/>
</g>
<g opacity="0.4" clip-path="url(#clip0_12_211)">
<path d="M120 102H123V114H120V109H116V114H113V102H116V106H120V102ZM148 102H139C137.9 102 137 102.9 137 104V114H140V105H142V112H145V104.98H147V114H150V104C150 102.9 149.1 102 148 102ZM135 102H125V105H128.5V114H131.5V105H135V102ZM161 114V111H156V102H153V114H161Z" fill="#809191"/>
</g>
<g opacity="0.4" clip-path="url(#clip1_12_211)">
<path d="M120 102H123V114H120V109H116V114H113V102H116V106H120V102ZM148 102H139C137.9 102 137 102.9 137 104V114H140V105H142V112H145V104.98H147V114H150V104C150 102.9 149.1 102 148 102ZM135 102H125V105H128.5V114H131.5V105H135V102ZM161 114V111H156V102H153V114H161Z" fill="#809191"/>
</g>
<g opacity="0.2" clip-path="url(#clip2_12_211)">
<path d="M139 283H142V295H139V290H135V295H132V283H135V287H139V283ZM167 283H158C156.9 283 156 283.9 156 285V295H159V286H161V293H164V285.98H166V295H169V285C169 283.9 168.1 283 167 283ZM154 283H144V286H147.5V295H150.5V286H154V283ZM180 295V292H175V283H172V295H180Z" fill="#809191"/>
</g>
<g opacity="0.4" clip-path="url(#clip3_12_211)">
<path d="M225 66V64H228V65H232V63H227C225.9 63 225 62.1 225 61V58C225 56.9 225.9 56 227 56H233C234.1 56 235 56.9 235 58V60H232V59H228V61H233C234.1 61 235 61.9 235 63V66C235 67.1 234.1 68 233 68H227C225.9 68 225 67.1 225 66ZM219 56V65H216V63H213V65C213 66.66 214.34 68 216 68H219C220.66 68 222 66.66 222 65V56C222 56 220.66 56 219 56Z" fill="#809191"/>
</g>
<g opacity="0.4" clip-path="url(#clip4_12_211)">
<path d="M225 66V64H228V65H232V63H227C225.9 63 225 62.1 225 61V58C225 56.9 225.9 56 227 56H233C234.1 56 235 56.9 235 58V60H232V59H228V61H233C234.1 61 235 61.9 235 63V66C235 67.1 234.1 68 233 68H227C225.9 68 225 67.1 225 66ZM219 56V65H216V63H213V65C213 66.66 214.34 68 216 68H219C220.66 68 222 66.66 222 65V56C222 56 220.66 56 219 56Z" fill="#809191"/>
</g>
<g opacity="0.3" clip-path="url(#clip5_12_211)">
<path d="M244 247V245H247V246H251V244H246C244.9 244 244 243.1 244 242V239C244 237.9 244.9 237 246 237H252C253.1 237 254 237.9 254 239V241H251V240H247V242H252C253.1 242 254 242.9 254 244V247C254 248.1 253.1 249 252 249H246C244.9 249 244 248.1 244 247ZM238 237V246H235V244H232V246C232 247.66 233.34 249 235 249H238C239.66 249 241 247.66 241 246V237C241 237 239.66 237 238 237Z" fill="#809191"/>
</g>
<g opacity="0.4" clip-path="url(#clip6_12_211)">
<path d="M387 162V160H390V161H394V159H389C387.9 159 387 158.1 387 157V154C387 152.9 387.9 152 389 152H395C396.1 152 397 152.9 397 154V156H394V155H390V157H395C396.1 157 397 157.9 397 159V162C397 163.1 396.1 164 395 164H389C387.9 164 387 163.1 387 162ZM381 152V161H378V159H375V161C375 162.66 376.34 164 378 164H381C382.66 164 384 162.66 384 161V152C384 152 382.66 152 381 152Z" fill="#809191"/>
</g>
<g opacity="0.4" clip-path="url(#clip7_12_211)">
<path d="M387 162V160H390V161H394V159H389C387.9 159 387 158.1 387 157V154C387 152.9 387.9 152 389 152H395C396.1 152 397 152.9 397 154V156H394V155H390V157H395C396.1 157 397 157.9 397 159V162C397 163.1 396.1 164 395 164H389C387.9 164 387 163.1 387 162ZM381 152V161H378V159H375V161C375 162.66 376.34 164 378 164H381C382.66 164 384 162.66 384 161V152C384 152 382.66 152 381 152Z" fill="#809191"/>
</g>
<g opacity="0.1" clip-path="url(#clip8_12_211)">
<path d="M406 343V341H409V342H413V340H408C406.9 340 406 339.1 406 338V335C406 333.9 406.9 333 408 333H414C415.1 333 416 333.9 416 335V337H413V336H409V338H414C415.1 338 416 338.9 416 340V343C416 344.1 415.1 345 414 345H408C406.9 345 406 344.1 406 343ZM400 333V342H397V340H394V342C394 343.66 395.34 345 397 345H400C401.66 345 403 343.66 403 342V333C403 333 401.66 333 400 333Z" fill="#809191"/>
</g>
<g opacity="0.4" clip-path="url(#clip9_12_211)">
<path d="M293 150V148H296V149H300V147H295C293.9 147 293 146.1 293 145V142C293 140.9 293.9 140 295 140H301C302.1 140 303 140.9 303 142V144H300V143H296V145H301C302.1 145 303 145.9 303 147V150C303 151.1 302.1 152 301 152H295C293.9 152 293 151.1 293 150ZM308 152H314C315.1 152 316 151.1 316 150V147C316 145.9 315.1 145 314 145H309V143H313V144H316V142C316 140.9 315.1 140 314 140H308C306.9 140 306 140.9 306 142V145C306 146.1 306.9 147 308 147H313V149H309V148H306V150C306 151.1 306.9 152 308 152ZM290 142C290 140.9 289.1 140 288 140H282C280.9 140 280 140.9 280 142V150C280 151.1 280.9 152 282 152H288C289.1 152 290 151.1 290 150V148H287V149H283V143H287V144H290V142Z" fill="#809191"/>
</g>
<g opacity="0.4" clip-path="url(#clip10_12_211)">
<path d="M293 150V148H296V149H300V147H295C293.9 147 293 146.1 293 145V142C293 140.9 293.9 140 295 140H301C302.1 140 303 140.9 303 142V144H300V143H296V145H301C302.1 145 303 145.9 303 147V150C303 151.1 302.1 152 301 152H295C293.9 152 293 151.1 293 150ZM308 152H314C315.1 152 316 151.1 316 150V147C316 145.9 315.1 145 314 145H309V143H313V144H316V142C316 140.9 315.1 140 314 140H308C306.9 140 306 140.9 306 142V145C306 146.1 306.9 147 308 147H313V149H309V148H306V150C306 151.1 306.9 152 308 152ZM290 142C290 140.9 289.1 140 288 140H282C280.9 140 280 140.9 280 142V150C280 151.1 280.9 152 282 152H288C289.1 152 290 151.1 290 150V148H287V149H283V143H287V144H290V142Z" fill="#809191"/>
</g>
<g opacity="0.2" clip-path="url(#clip11_12_211)">
<path d="M312 331V329H315V330H319V328H314C312.9 328 312 327.1 312 326V323C312 321.9 312.9 321 314 321H320C321.1 321 322 321.9 322 323V325H319V324H315V326H320C321.1 326 322 326.9 322 328V331C322 332.1 321.1 333 320 333H314C312.9 333 312 332.1 312 331ZM327 333H333C334.1 333 335 332.1 335 331V328C335 326.9 334.1 326 333 326H328V324H332V325H335V323C335 321.9 334.1 321 333 321H327C325.9 321 325 321.9 325 323V326C325 327.1 325.9 328 327 328H332V330H328V329H325V331C325 332.1 325.9 333 327 333ZM309 323C309 321.9 308.1 321 307 321H301C299.9 321 299 321.9 299 323V331C299 332.1 299.9 333 301 333H307C308.1 333 309 332.1 309 331V329H306V330H302V324H306V325H309V323Z" fill="#809191"/>
</g>
<g opacity="0.4" clip-path="url(#clip12_12_211)">
<path d="M189 166H192V178H189V173H185V178H182V166H185V170H189V166ZM179 169V171C179 172.6 177.6 174 176 174H172V178H169V166H176C177.6 166 179 167.4 179 169ZM176 169H172V171H176V169ZM206 169V171C206 172.6 204.6 174 203 174H199V178H196V166H203C204.6 166 206 167.4 206 169ZM203 169H199V171H203V169Z" fill="#809191"/>
</g>
<g opacity="0.4" clip-path="url(#clip13_12_211)">
<path d="M189 166H192V178H189V173H185V178H182V166H185V170H189V166ZM179 169V171C179 172.6 177.6 174 176 174H172V178H169V166H176C177.6 166 179 167.4 179 169ZM176 169H172V171H176V169ZM206 169V171C206 172.6 204.6 174 203 174H199V178H196V166H203C204.6 166 206 167.4 206 169ZM203 169H199V171H203V169Z" fill="#809191"/>
</g>
<g opacity="0.1" clip-path="url(#clip14_12_211)">
<path d="M208 347H211V359H208V354H204V359H201V347H204V351H208V347ZM198 350V352C198 353.6 196.6 355 195 355H191V359H188V347H195C196.6 347 198 348.4 198 350ZM195 350H191V352H195V350ZM225 350V352C225 353.6 223.6 355 222 355H218V359H215V347H222C223.6 347 225 348.4 225 350ZM222 350H218V352H222V350Z" fill="#809191"/>
</g>
<g opacity="0.3" clip-path="url(#clip15_12_211)">
<path d="M294 218H297V230H294V225H290V230H287V218H290V222H294V218ZM284 221V223C284 224.6 282.6 226 281 226H277V230H274V218H281C282.6 218 284 219.4 284 221ZM281 221H277V223H281V221ZM311 221V223C311 224.6 309.6 226 308 226H304V230H301V218H308C309.6 218 311 219.4 311 221ZM308 221H304V223H308V221Z" fill="#809191"/>
</g>
<g opacity="0.3" clip-path="url(#clip16_12_211)">
<path d="M294 218H297V230H294V225H290V230H287V218H290V222H294V218ZM284 221V223C284 224.6 282.6 226 281 226H277V230H274V218H281C282.6 218 284 219.4 284 221ZM281 221H277V223H281V221ZM311 221V223C311 224.6 309.6 226 308 226H304V230H301V218H308C309.6 218 311 219.4 311 221ZM308 221H304V223H308V221Z" fill="#809191"/>
</g>
<g opacity="0.1" clip-path="url(#clip17_12_211)">
<path d="M313 399H316V411H313V406H309V411H306V399H309V403H313V399ZM303 402V404C303 405.6 301.6 407 300 407H296V411H293V399H300C301.6 399 303 400.4 303 402ZM300 402H296V404H300V402ZM330 402V404C330 405.6 328.6 407 327 407H323V411H320V399H327C328.6 399 330 400.4 330 402ZM327 402H323V404H327V402Z" fill="#809191"/>
</g>
<defs>
<clipPath id="clip0_12_211">
<rect width="48" height="48" fill="white" transform="translate(113 84)"/>
</clipPath>
<clipPath id="clip1_12_211">
<rect width="48" height="48" fill="white" transform="translate(113 84)"/>
</clipPath>
<clipPath id="clip2_12_211">
<rect width="48" height="48" fill="white" transform="translate(132 265)"/>
</clipPath>
<clipPath id="clip3_12_211">
<rect width="48" height="48" fill="white" transform="translate(201 38)"/>
</clipPath>
<clipPath id="clip4_12_211">
<rect width="48" height="48" fill="white" transform="translate(201 38)"/>
</clipPath>
<clipPath id="clip5_12_211">
<rect width="48" height="48" fill="white" transform="translate(220 219)"/>
</clipPath>
<clipPath id="clip6_12_211">
<rect width="48" height="48" fill="white" transform="translate(363 134)"/>
</clipPath>
<clipPath id="clip7_12_211">
<rect width="48" height="48" fill="white" transform="translate(363 134)"/>
</clipPath>
<clipPath id="clip8_12_211">
<rect width="48" height="48" fill="white" transform="translate(382 315)"/>
</clipPath>
<clipPath id="clip9_12_211">
<rect width="48" height="48" fill="white" transform="translate(274 122)"/>
</clipPath>
<clipPath id="clip10_12_211">
<rect width="48" height="48" fill="white" transform="translate(274 122)"/>
</clipPath>
<clipPath id="clip11_12_211">
<rect width="48" height="48" fill="white" transform="translate(293 303)"/>
</clipPath>
<clipPath id="clip12_12_211">
<rect width="48" height="48" fill="white" transform="translate(163 148)"/>
</clipPath>
<clipPath id="clip13_12_211">
<rect width="48" height="48" fill="white" transform="translate(163 148)"/>
</clipPath>
<clipPath id="clip14_12_211">
<rect width="48" height="48" fill="white" transform="translate(182 329)"/>
</clipPath>
<clipPath id="clip15_12_211">
<rect width="48" height="48" fill="white" transform="translate(268 200)"/>
</clipPath>
<clipPath id="clip16_12_211">
<rect width="48" height="48" fill="white" transform="translate(268 200)"/>
</clipPath>
<clipPath id="clip17_12_211">
<rect width="48" height="48" fill="white" transform="translate(287 381)"/>
</clipPath>
</defs>
</svg>
